<?xml version="1.0" standalone="no"?>
<!DOCTYPE svg PUBLIC "-//W3C//DTD SVG 1.1//EN" "http://www.w3.org/Graphics/SVG/1.1/DTD/svg11.dtd" >
<!--
2013-9-30: Created.
-->
<svg>
<metadata>
Created by iconfont
</metadata>
<defs>

<font id="iconfont" horiz-adv-x="1024" >
  <font-face
    font-family="iconfont"
    font-weight="500"
    font-stretch="normal"
    units-per-em="1024"
    ascent="896"
    descent="-128"
  />
    <missing-glyph />
    
    <glyph glyph-name="shujutongji" unicode="&#58880;" d="M166.107955 267.343053c-15.830221 0-30.836531 3.001344-45.027328 9.00608-14.190797 5.999616-26.471014 14.186086-36.84055 24.559309-10.369638 10.368102-18.556416 22.647808-24.560333 36.839014-6.004019 14.190182-9.00649 29.195981-9.00649 45.025485 0 15.824384 3.00247 30.699213 9.00649 44.61312 6.004019 13.919027 14.190797 26.062541 24.560333 36.43177 10.369638 10.369126 22.649754 18.555597 36.84055 24.559309 14.190797 6.003712 29.19721 9.00608 45.027328 9.00608 3.273728 0 6.276198-0.140186 9.00649-0.412365 2.726195-0.271155 5.456486-0.407245 8.186778-0.407245l159.642419 193.201254c-2.730291 5.456282-4.505805 11.459994-5.325517 18.007142-0.814592 6.552269-1.226957 13.371494-1.226957 20.466074 0 15.829504 3.00247 30.835302 9.00649 45.025485 6.004019 14.190182 14.190797 26.469888 24.560333 36.839014s22.649754 18.555597 36.84055 24.559309c14.190797 6.003712 29.201306 9.00608 45.027328 9.00608 15.826125 0 30.836531-3.002368 45.027328-9.00608s26.471014-14.190182 36.84055-24.559309c10.369638-10.369126 18.556416-22.648832 24.560333-36.839014 6.004019-14.190182 9.00649-29.200077 9.00649-45.025485 0-13.099315-2.046669-25.514086-6.140109-37.246259-4.09344-11.736269-9.690112-22.784922-16.786022-33.158144L682.69568 348.387942l79.408845 141.623501c-6.004019 9.278362-10.912973 19.511398-14.734131 30.699213-3.822182 11.188838-5.732762 23.061197-5.732762 35.612058 0 15.829504 3.00247 30.835302 9.00649 45.025485 6.004019 14.190182 14.190797 26.469888 24.560333 36.839014 10.369638 10.369126 22.649754 18.555597 36.84055 24.559309 14.190797 6.003712 29.201306 9.00608 45.027328 9.00608 15.826125 0 30.836531-3.002368 45.027328-9.00608 14.190797-6.003712 26.607104-14.190182 37.247898-24.559309 10.645914-10.369126 18.968781-22.648832 24.9728-36.839014 6.004019-14.190182 9.00649-29.200077 9.00649-45.025485 0-16.372941-3.00247-31.653888-9.00649-45.845094-6.004019-14.186086-14.326886-26.605978-24.9728-37.246259-10.640794-10.640384-23.057101-18.966938-37.247898-24.966656-14.194893-6.004736-29.201306-9.00608-45.027328-9.00608l-19.64728 0-77.774541-141.628621c12.007936-10.912563 21.561958-23.739699 28.653773-38.473216 7.094886-14.738637 10.640794-30.835302 10.640794-48.299008 0-15.829504-3.001446-30.839398-9.00649-45.025485-5.999923-14.191206-14.326886-26.605978-24.96768-37.251379-10.640794-10.640384-22.921011-18.962842-36.84055-24.966656-13.919642-6.003712-29.06112-9.00608-45.434675-9.00608s-31.520154 3.002368-45.439795 9.00608c-13.914522 6.003712-26.059571 14.326272-36.428186 24.966656-10.373734 10.645504-18.560512 23.060173-24.560333 37.251379-6.005043 14.186086-9.00649 29.195981-9.00649 45.025485 0 17.463706 3.409818 33.560371 10.233446 48.299008 6.819635 14.733517 16.237466 27.560755 28.241408 38.473216l-140.809728 315.178291c-5.460582-1.090867-9.826202-1.634202-13.09993-1.634202-8.73431 0-17.057178 1.090867-24.96768 3.273523-7.915622 2.182758-15.422874 4.912845-22.513664 8.18647L264.349491 445.80567c5.456486-9.277338 9.821082-19.239219 13.09993-29.879501 3.273728-10.640384 4.908032-21.69303 4.908032-33.153024 0-15.829504-3.001446-30.839398-9.00137-45.025485-6.005043-14.191206-14.326886-26.470912-24.9728-36.839014-10.640794-10.373222-22.921011-18.559693-36.84055-24.559309C197.628211 270.344499 182.481613 267.343053 166.107955 267.343053L166.107955 267.343053zM50.673152 35.663462l922.65364 0 0-111.331621L50.67318-75.668159 50.67318 35.6635 50.673152 35.663462zM50.673152 35.663462"  horiz-adv-x="1024" />

    
    <glyph glyph-name="shouye" unicode="&#58938;" d="M940.280762 342.258317c-11.320836-11.320836-26.201755-16.98279-41.043788-16.98279-6.702656 0-13.32754 1.316995-19.708877 3.615341L879.528096 15.278217c0-42.825364-34.722826-77.546144-77.54819-77.546144L666.275177-62.267926l-19.386536 0L608.113523-62.267926c-21.412682 0-38.773072 17.361413-38.773072 38.774095l0 19.385513L569.340451 15.278217 569.340451 150.984992c0 10.705829-8.688893 19.386536-19.386536 19.386536l-77.546144 0c-10.697643 0-19.387559-8.680706-19.387559-19.386536L453.020212 15.278217l0-19.386536 0-19.385513c0-21.412682-17.36039-38.774095-38.773072-38.774095l-38.774095 0-19.386536 0L220.379735-62.267926c-42.825364 0-77.547167 34.721803-77.547167 77.546144L142.832568 329.960223c-20.825304-7.504928-45.00296-2.847861-61.444421 14.06739-22.37766 23.041786-21.838378 59.864436 1.201361 82.242096l79.629595 77.621868L162.219103 674.425555c0 21.412682 17.361413 38.773072 38.774095 38.773072l77.546144 0c21.412682 0 38.774095-17.36039 38.774095-38.773072l0-19.368116 162.306596 158.217465c22.833031 22.150486 59.220776 21.88545 81.713047-0.662079l379.100154-388.112412C963.114816 401.762549 963.037045 364.929666 940.280762 342.258317zM220.379735-23.494854l135.706775 0 19.386536 0 19.387559 0c10.705829 0 19.386536 8.67866 19.386536 19.385513L414.24714 15.278217 414.24714 170.371528c0 21.412682 17.36039 38.773072 38.773072 38.773072L569.340451 209.1446c21.412682 0 38.773072-17.36039 38.773072-38.773072L608.113523 15.278217l0-19.386536c0-10.706853 8.69094-19.385513 19.387559-19.385513l19.386536 0 19.386536 0 135.704728 0c21.413706 0 38.776142 17.36039 38.776142 38.773072L840.755024 360.110917 519.510556 689.827337 181.606663 360.376976 181.606663 15.278217C181.606663-6.134465 198.968076-23.494854 220.379735-23.494854zM278.539342 655.03902c0 10.706853-8.679683 19.386536-19.386536 19.386536l-38.773072 0c-10.705829 0-19.386536-8.679683-19.386536-19.386536l0-113.356744 77.546144 75.587536L278.539342 655.03902zM912.962579 397.123902 533.879821 785.237337c-4.940522 4.960988-10.715039 5.698792-13.724583 5.698792-5.074575 0-9.863648-1.949398-13.498432-5.480828L109.606839 398.458293c-7.667633-7.440459-7.855922-19.745716-0.398066-27.414373 4.960988-5.111414 10.838859-5.868661 13.906731-5.868661 5.064342 0 9.854439 1.950422 13.498432 5.490038l6.219655 6.057973 0 6.901177 7.081279 0 370.032638 360.679619L871.973026 383.62547l7.55507 0 0-7.752568 5.983271-6.124488c4.941546-4.959965 10.715039-5.698792 13.725606-5.698792 2.991124 0 8.746198 0.73985 13.687744 5.661953 4.941546 4.941546 5.698792 10.705829 5.698792 13.707187C918.623509 386.407839 917.904125 392.182356 912.962579 397.123902zM511.180843 558.10634c42.825364 0 77.54512-34.721803 77.54512-77.547167s-34.720779-77.547167-77.54512-77.547167c-42.825364 0-77.547167 34.721803-77.547167 77.547167S468.355479 558.10634 511.180843 558.10634zM511.180843 441.785078c21.412682 0 38.773072 17.361413 38.773072 38.774095s-17.36039 38.773072-38.773072 38.773072c-21.412682 0-38.773072-17.36039-38.773072-38.773072S489.768161 441.785078 511.180843 441.785078z"  horiz-adv-x="1024" />

    
    <glyph glyph-name="shouye1" unicode="&#58911;" d="M947.428555 468.684728 570.384223 766.683772c-32.457226 25.702382-83.383082 25.670659-115.812679 0L77.559958 468.684728c-12.878309-10.205433-15.080463-28.915563-4.907777-41.793872 10.172687-12.882402 28.470425-15.084557 41.35385-4.912893l11.747555 9.641591 0-360.324532c0-51.077306 53.819766-89.24458 101.145631-89.24458l594.983993 0c46.768163 0 77.350692 35.875069 77.350692 89.24458L899.233903 430.221718l10.857279-8.243755c5.475711-4.312212 12.19781-6.395664 18.652825-6.395664 8.774851 0 17.581424 3.867074 23.440875 11.308557C962.390315 439.769165 960.338586 458.479295 947.428555 468.684728L947.428555 468.684728zM482.742141 41.549557 482.742141 206.476841c0 8.208962 14.875802 12.313443 29.751604 12.313443 14.875802 0 29.750581-4.104481 29.750581-12.313443l0-164.928307L482.742141 41.548534 482.742141 41.549557zM839.735811 71.296045c0-19.723204-5.447059-29.746488-17.8526-29.746488L602.335936 41.549557c0 0.445138-0.594541 0.801249-0.594541 1.246387L601.741395 206.476841c0 34.597983-27.903513 71.845305-89.24765 71.845305-61.341067 0-89.248673-37.247322-89.248673-71.845305L423.245072 42.794921c0-0.445138 0.804319-0.801249 0.804319-1.246387l-197.150172 0c-18.650779 0-41.648562 16.123212-41.648562 29.746488l0 407.357731 305.794591 241.351883c10.975982 8.688893 30.789237 8.688893 41.797965 0l306.892599-242.74972L839.735811 71.296045 839.735811 71.296045zM839.735811 71.296045"  horiz-adv-x="1024" />

    
    <glyph glyph-name="cc-search" unicode="&#59032;" d="M932.236-37.799l-266.071 290.287c59.982 62.693 92.9 144.729 92.9 231.794 0 89.665-34.929 174.02-98.322 237.389-63.477 63.392-147.764 98.366-237.431 98.366-89.667 0-174-34.931-237.391-98.366-63.392-63.434-98.366-147.723-98.366-237.389 0-89.667 34.889-173.998 98.366-237.389 63.435-63.393 147.723-98.366 237.391-98.366 77.292 0 150.521 25.923 209.889 73.62l266.027-290.201c4.414-4.807 10.448-7.256 16.523-7.256 5.423 0 10.844 1.923 15.125 5.858 9.138 8.393 9.75 22.515 1.399 31.609l-0.04 0.044zM132.278 484.282c0 160.445 130.542 290.987 290.988 290.987 160.446 0 290.988-130.543 290.988-290.987 0-160.445-130.542-290.987-290.988-290.987-160.446-0.001-290.988 130.541-290.988 290.987z"  horiz-adv-x="1024" />

    
    <glyph glyph-name="lockclosed" unicode="&#58989;" d="M295.424 64.63488l450.56 0c11.30496 0 20.48 9.17504 20.48 20.48l0 350.4128c0 11.30496-9.17504 20.48-20.48 20.48l-9.70752 0c0 21.0944 0 50.95424 0 51.36384-1.26976 117.248-97.95584 212.62336-215.552 212.62336-117.94432 0-214.6304-95.66208-215.57248-213.4016l0-50.5856-9.70752 0c-11.30496 0-20.48-9.17504-20.48-20.48l0-350.4128C274.944 73.80992 284.09856 64.63488 295.424 64.63488zM725.504 105.59488l-409.6 0 0 309.4528 409.6 0L725.504 105.59488zM346.09152 506.42944c0.75776 95.17056 79.07328 172.60544 174.61248 172.60544 95.25248 0 173.58848-77.2096 174.592-172.01152 0-1.3312 0-30.35136 0-51.01568L346.07104 456.00768 346.09152 506.42944zM476.01664 174.30528c0-11.30496 9.17504-20.48 20.48-20.48l48.37376 0c11.30496 0 20.48 9.17504 20.48 20.48l0 66.17088c16.6912 13.37344 26.64448 33.56672 26.64448 55.1936 0 39.23968-31.98976 71.168-71.31136 71.168s-71.31136-31.92832-71.31136-71.168c0-21.62688 9.95328-41.82016 26.64448-55.1936L476.01664 174.30528zM520.704 325.85728c16.73216 0 30.35136-13.55776 30.35136-30.208 0-10.87488-6.10304-20.97152-15.95392-26.3168-6.59456-3.584-10.69056-10.48576-10.69056-17.98144l0-56.56576-7.41376 0 0 56.56576c0 7.49568-4.096 14.41792-10.69056 17.98144-9.8304 5.34528-15.95392 15.44192-15.95392 26.3168C490.33216 312.32 503.95136 325.85728 520.704 325.85728z"  horiz-adv-x="1024" />

    
    <glyph glyph-name="shenhe" unicode="&#59038;" d="M469.2 545.9C414 519.6 370.3 474.3 346 418.2c-7-16.2 0.5-35.1 16.7-42.1 4.1-1.8 8.4-2.6 12.7-2.6 12.4 0 24.2 7.2 29.4 19.3 18.1 41.9 50.8 75.7 92 95.4 16 7.6 22.7 26.7 15.1 42.6C504.3 546.7 485.2 553.5 469.2 545.9zM797.6 350.2c-17.7 0-32-14.3-32-32 0-103.7-84.4-188.1-188.1-188.1-17.7 0-32-14.3-32-32s14.3-32 32-32c67.3 0 130.6 26.2 178.2 73.8 47.6 47.6 73.8 110.9 73.8 178.2C829.6 335.9 815.3 350.2 797.6 350.2zM1014.6-72.4 869.4 72.8c24.9 29.5 45.1 62.3 60.2 97.9 20 47.3 30.2 97.6 30.2 149.4s-10.2 102.1-30.2 149.4c-19.3 45.7-47 86.8-82.3 122-35.2 35.2-76.3 62.9-122 82.3-47.3 20-97.6 30.2-149.4 30.2s-102.1-10.2-149.4-30.2c-45.7-19.3-86.8-47-122-82.3-35.2-35.2-62.9-76.3-82.3-122-20-47.3-30.2-97.6-30.2-149.4s10.2-102.1 30.2-149.4c19.3-45.7 47-86.8 82.3-122 35.2-35.2 76.3-62.9 122-82.3 47.3-20 97.6-30.2 149.4-30.2s102.1 10.2 149.4 30.2c36.1 15.3 69.2 35.7 98.9 61l145.2-145.2c6.2-6.2 14.4-9.4 22.6-9.4s16.4 3.1 22.6 9.4C1027.1-105.2 1027.1-84.9 1014.6-72.4zM575.9 0.3C399.5 0.3 256 143.8 256 320.2s143.5 319.9 319.9 319.9 319.9-143.5 319.9-319.9S752.2 0.3 575.9 0.3zM319-64 140-64c-41.9 0-76 34.1-76 76l0 744c0 41.9 34.1 76 76 76l680 0c41.9 0 76-34.1 76-76l0-92.7c0-17.7 14.3-32 32-32s32 14.3 32 32l0 92.7c0 77.2-62.8 140-140 140L140 896c-77.2 0-140-62.8-140-140l0-744c0-77.2 62.8-140 140-140l179 0c17.7 0 32 14.3 32 32S336.7-64 319-64z"  horiz-adv-x="1024" />

    
    <glyph glyph-name="arrowleftb" unicode="&#59094;" d="M654.6 698.2l-4.2-3.6-313-272c-10.6-9.2-17.2-23-17.2-38.4 0-15.4 6.8-29.2 17.2-38.4L649.8 74l5.2-4.6c5-3.4 11-5.4 17.4-5.4 17.4 0 31.6 14.8 31.6 33.2l0 0L704 670.8l0 0c0 18.4-14.2 33.2-31.6 33.2C665.8 704 659.6 701.8 654.6 698.2z"  horiz-adv-x="1024" />

    
    <glyph glyph-name="arrowrightb1" unicode="&#59121;" d="M369.4 69.8l4.2 3.6 313 272c10.6 9.2 17.2 23 17.2 38.4 0 15.4-6.8 29.2-17.2 38.4L374.2 694l-5.2 4.6C364 702 358 704 351.6 704c-17.4 0-31.6-14.8-31.6-33.2l0 0 0-573.6 0 0c0-18.4 14.2-33.2 31.6-33.2C358.2 64 364.4 66.2 369.4 69.8z"  horiz-adv-x="1024" />

    
    <glyph glyph-name="close" unicode="&#58888;" d="M512-128C229.701818-128 0 101.701818 0 384S229.701818 896 512 896c282.321455 0 512-229.701818 512-512S794.344727-128 512-128zM512 851.479273C254.231273 851.479273 44.544 641.792 44.544 384c0-257.768727 209.710545-467.479273 467.479273-467.479273 257.792 0 467.479273 209.733818 467.479273 467.479273C979.502545 641.792 769.792 851.479273 512 851.479273zM666.693818 203.822545c-5.701818 0-11.403636 2.164364-15.755636 6.493091L342.690909 518.609455c-8.704 8.704-8.704 22.784 0 31.488 8.704 8.704 22.784 8.704 31.488 0L682.426182 241.803636c8.704-8.680727 8.704-22.784 0-31.488C678.097455 205.986909 672.418909 203.822545 666.693818 203.822545zM354.048 203.799273c-5.701818 0-11.380364 2.187636-15.732364 6.493091-8.704 8.704-8.704 22.784 0 31.488L654.196364 557.661091c8.704 8.704 22.784 8.704 31.488 0 8.680727-8.704 8.680727-22.784 0-31.488L369.803636 210.292364C365.451636 205.986909 359.749818 203.799273 354.048 203.799273z"  horiz-adv-x="1024" />

    
    <glyph glyph-name="shouye2" unicode="&#58960;" d="M969.6 393.6l-118.4 112-323.2 300.8c-9.6 9.6-22.4 9.6-32 0l-313.6-297.6c-3.2-3.2-6.4-6.4-9.6-9.6l-118.4-112c-9.6-9.6-9.6-22.4 0-32s22.4-9.6 32 0l83.2 80 0-393.6c0-48 41.6-89.6 92.8-89.6l83.2 0c38.4 0 70.4 28.8 70.4 67.2l0 217.6 99.2 0 99.2 0 0-217.6c0-35.2 32-67.2 70.4-67.2l83.2 0c51.2 0 92.8 38.4 92.8 89.6l0 396.8 80-73.6c9.6-9.6 22.4-9.6 32 0C979.2 371.2 979.2 384 969.6 393.6zM809.6 38.4c0-25.6-19.2-44.8-44.8-44.8l-83.2 0c-12.8 0-22.4 9.6-22.4 22.4L659.2 256c0 12.8-9.6 22.4-22.4 22.4l-121.6 0-121.6 0c-12.8 0-22.4-9.6-22.4-22.4l0-240c0-12.8-9.6-22.4-22.4-22.4l-83.2 0c-25.6 0-44.8 19.2-44.8 44.8l0 438.4 294.4 281.6 294.4-281.6L809.6 38.4z"  horiz-adv-x="1024" />

    
    <glyph glyph-name="canyin" unicode="&#58948;" d="M961.495434 326.301903c0 46.329165-24.746614 83.740216-58.366316 91.661629 14.832823 19.019169 22.953781 43.330878 22.953781 69.222571 0 68.674079-44.526099 143.574976-119.109772 200.36233-80.052221 60.953234-183.820586 94.52177-292.187689 94.52177-108.367103 0-212.135468-33.568537-292.187689-94.52177C148.015102 630.76108 103.487979 555.860183 103.487979 487.186104c0-24.414039 8.532327-49.196469 24.278963-68.922742-34.293037-7.238868-59.690474-45.024449-59.690474-91.961458 0-36.45426 0.044002-93.915973 45.191248-109.612467 2.240017-8.280594 5.619998-16.299221 10.917654-23.444968-0.86981-2.272763-1.866511-4.729721-1.866511-7.308453l0-84.014462c0-62.144362 51.559283-112.179942 113.703645-112.179942L793.383622-10.258389c62.144362 0 111.763456 50.036603 111.763456 112.179942l0 84.014462c0 1.39272 0.327458 2.75167 0.063445 4.066619 5.557576 7.416923 9.590426 16.394389 11.498892 26.751271C961.223235 232.228341 961.495434 287.672094 961.495434 326.301903zM247.424182 654.942829c72.959685 55.552224 167.910221 86.144986 267.36228 86.144986s194.401572-30.592762 267.361257-86.144986c64.466244-49.084928 102.953813-111.288642 102.953813-167.248142 0-46.731324-34.140565-67.141166-67.977207-67.141166L212.308407 420.553521c-33.346479 0-67.838038 24.795732-67.838038 67.141166C144.470369 543.653163 182.958962 605.8579 247.424182 654.942829zM139.795906 379.622296l72.512501 0 604.813872 0 72.652693 0c17.59268 0 30.737048-28.120454 30.737048-52.786227 0-62.72253-8.585539-71.743998-25.102724-72.856331-9.705036 0.743944-17.955954 4.508687-26.078958 11.07115-7.852852 7.251148-16.011672 16.892739-23.642466 25.979698-5.676279 6.757914-11.56029 13.726629-17.776875 20.337187-14.745842 16.594957-32.04688 31.153534-55.762001 32.267914-1.081635 0.064468-2.171456 0.094144-3.272533 0.094144-31.381731 0-53.488215-25.338085-74.866105-49.838082-2.131547-2.441609-4.270257-4.89345-6.41613-7.315616-15.771195-17.185404-31.78696-32.781614-46.61876-33.002648-0.966001 0.007163-1.927909 0.073678-2.886747 0.197498-14.170744 2.184759-31.262004 21.629623-46.444798 38.911218-1.673106 1.904373-3.350304 3.811816-5.03569 5.714142-18.645662 22.240537-39.998993 45.326325-69.857021 45.326325-0.188288 0-0.372483-0.01228-0.559748-0.014326-0.178055 0.002047-0.353041 0.014326-0.532119 0.014326-29.965475 0-52.426023-24.391527-74.147744-47.978734-18.576077-20.169365-37.766139-41.001833-57.387012-42.129516-19.370163 0.580215-37.173644 20.029172-55.999408 40.642652-11.82635 12.948917-23.867594 26.130124-37.446867 35.627429-10.644431 7.810896-22.252817 13.106506-35.513842 13.641695-1.552356 0.11768-3.120061 0.196475-4.717442 0.196475-34.564213 0-57.103556-29.239951-75.18026-53.92312-13.974269-17.913998-27.2619-34.612309-41.981137-36.090986-14.386662 1.013073-24.228821 9.575076-24.228821 73.129554C109.058858 351.500818 122.203226 379.622296 139.795906 379.622296zM847.61885 207.706855 179.603541 207.706855c-9.021467 0-16.219403 3.584642-21.049409 9.198499 19.542078 7.962346 33.914414 27.291576 47.913243 46.447868 0.49221 0.673335 0.985444 1.188058 1.478677 1.862417 0.118704 0.153496 0.2415 0.228197 0.360204 0.381693 14.758122 18.922978 28.706809 36.742832 44.288692 37.015032 5.176906-0.621147 10.629081-3.436262 16.228613-7.573489 8.242731-6.64535 17.187451-16.765849 25.962302-26.706245 23.066345-26.130124 49.210795-55.751768 87.679945-55.751768 0.425695 0 0.841158 0.020466 1.263783 0.027629 0.427742-0.007163 0.848321-0.031722 1.280156-0.031722 38.228673 0 64.285119 29.191856 87.273692 54.94745 15.22782 17.059538 30.959106 34.654264 43.889603 35.164894 11.103896-0.453325 25.731034-15.673981 39.401382-31.069623 1.284249-1.535983 2.568499-3.076058 3.847631-4.615111 19.891026-23.925922 42.269709-50.846038 75.065649-54.102199 2.0241-0.214894 4.079922-0.328481 6.169513-0.328481 0.081864 0 0.160659 0.00614 0.243547 0.00614 0.083911 0 0.164752-0.00614 0.249687-0.00614 32.633235 0 56.297191 23.342638 76.900438 46.573735 2.403746 2.619664 4.76963 5.239328 7.102768 7.822153 15.127536 16.749476 32.273031 35.735899 44.071751 35.735899 0.445138 0 0.884137-0.052189 1.327228-0.082888 8.052396-0.957815 17.271362-8.590656 26.521027-18.312064 3.831258-4.319375 7.927553-9.293667 12.446473-14.887059 9.485025-11.740392 20.062941-24.792663 32.985252-35.438117 9.496282-8.562003 19.820418-14.903431 31.335682-18.377556C868.843244 208.797699 859.853499 207.706855 847.61885 207.706855zM864.21483 101.922576c0-39.545668-31.28554-71.247694-70.831208-71.247694L236.021481 30.674882c-39.545668 0-72.771397 31.702026-72.771397 71.247694l0 63.828724 16.353456 0L847.61885 165.751301l16.59598 0L864.21483 101.922576zM415.662885 633.67034c11.863189 0 21.516036 9.650801 21.516036 21.516036s-9.651824 21.516036-21.516036 21.516036c-11.864212 0-21.516036-9.650801-21.516036-21.516036S403.797649 633.67034 415.662885 633.67034zM307.058374 518.919852c11.863189 0 21.516036 9.650801 21.516036 21.516036s-9.651824 21.516036-21.516036 21.516036c-11.864212 0-21.516036-9.650801-21.516036-21.516036S295.194162 518.919852 307.058374 518.919852zM618.526175 633.67034c11.863189 0 21.516036 9.650801 21.516036 21.516036s-9.651824 21.516036-21.516036 21.516036c-11.864212 0-21.516036-9.650801-21.516036-21.516036S606.66094 633.67034 618.526175 633.67034zM517.094018 518.919852c11.863189 0 21.516036 9.650801 21.516036 21.516036s-9.651824 21.516036-21.516036 21.516036c-11.864212 0-21.516036-9.650801-21.516036-21.516036S505.229806 518.919852 517.094018 518.919852zM727.129662 518.919852c11.863189 0 21.516036 9.650801 21.516036 21.516036s-9.651824 21.516036-21.516036 21.516036c-11.864212 0-21.516036-9.650801-21.516036-21.516036S715.26545 518.919852 727.129662 518.919852z"  horiz-adv-x="1024" />

    
    <glyph glyph-name="canting" unicode="&#58959;" d="M799.784402 317.477934 799.784402 758.676401c0 41.695634-27.965935 70.816882-68.006883 70.816882-20.681018 0-38.760792-7.601118-53.735855-22.593578-54.996568-55.057967-54.830793-202.063065-54.685483-331.764056l0.014326-18.275225c0-31.683607 8.089235-56.134485 24.043602-72.67316 15.112186-15.663748 36.401048-23.606651 63.275115-23.606651 4.578272 0 20.784372-0.011256 36.376489-0.021489 3.906983-0.00307 7.77508-0.005117 11.413957-0.008186l0-43.071981c-26.843368-6.79066-46.769186-31.144324-46.769186-60.068074l0-258.159688c0-34.165124 27.79402-61.959144 61.95812-61.959144l10.92584 0c34.164101 0 61.95812 27.79402 61.95812 61.959144l0 258.159688C846.551542 286.33361 826.62777 310.686251 799.784402 317.477934zM747.093343 401.86488c-15.604396 0.010233-31.821753 0.021489-36.404118 0.021489-40.437991 0-46.012963 26.421766-46.012963 54.974056l-0.014326 18.321274c-0.122797 109.551068-0.290619 259.58413 42.602284 302.526151 7.141654 7.14984 14.931061 10.479679 24.5133 10.479679 17.21815 0 26.701129-10.480702 26.701129-29.511127l0-356.819708C754.851027 401.859763 750.990093 401.86181 747.093343 401.86488zM805.245787-0.749828c0-11.388375-9.266038-20.653389-20.652366-20.653389l-10.92584 0c-11.387351 0-20.652366 9.266038-20.652366 20.653389l0 258.159688c0 11.388375 9.266038 20.652366 20.652366 20.652366l10.92584 0c11.387351 0 20.652366-9.265014 20.652366-20.652366L805.245787-0.749828zM425.797709 811.03284c-1.094938 10.375302-9.872858 18.459421-20.537755 18.459421-11.406794 0-20.652366-9.246595-20.652366-20.652366l0-0.596588c0-1.50733 0.165776-3.010567 0.49221-4.481058 3.930519-17.685801 8.343015-35.910884 13.013385-55.205323 16.07921-66.425875 34.305317-141.713582 34.305317-206.637244 0-42.007743-23.861454-79.975473-60.761875-96.712669-9.66922-4.368494-18.364253-7.661494-26.046213-9.880021L345.610412 810.056606c0 11.406794-9.246595 20.652366-20.652366 20.652366-11.406794 0-20.652366-9.246595-20.652366-20.652366l0-374.634446c-6.716982 1.885953-14.876826 4.758374-24.515347 9.146311-37.078477 16.946974-61.037145 55.081503-61.037145 97.151667 0 63.536059 17.578354 137.433092 33.085536 202.632023 4.998851 21.013593 9.719362 40.86164 13.859659 60.154032 2.393513 11.151991-4.707209 22.13309-15.860223 24.526603-11.142781 2.388397-22.13309-4.707209-24.526603-15.859199-4.045129-18.844184-8.713452-38.47836-13.658068-59.262732-16.034185-67.408249-34.20708-143.810337-34.20708-212.190727 0-58.190307 33.431414-111.070678 85.199451-134.733611 14.586207-6.639211 28.810163-11.398608 41.657772-14.018272l0-75.654051c-26.52512-7.009647-46.140876-31.206746-46.140876-59.904345l0-258.159688c0-34.165124 27.79402-61.959144 61.95812-61.959144l10.92584 0c34.164101 0 61.95812 27.79402 61.95812 61.959144l0 258.159688c0 29.147854-20.237927 53.643758-47.39545 60.213383l0 75.160817c12.636808 2.553149 26.733874 7.407714 43.080168 14.791891 51.655474 23.430642 85.032652 76.16468 85.032652 134.342708 0 69.852928-18.842137 147.684574-35.464723 216.355583C433.785637 776.754129 429.55222 794.242432 425.797709 811.03284zM351.701131 257.40986l0-258.159688c0-11.388375-9.265014-20.653389-20.652366-20.653389l-10.92584 0c-11.388375 0-20.652366 9.266038-20.652366 20.653389l0 258.159688c0 11.388375 9.263991 20.652366 20.652366 20.652366l10.92584 0C342.436116 278.063249 351.701131 268.798235 351.701131 257.40986z"  horiz-adv-x="1024" />

    
    <glyph glyph-name="feiji" unicode="&#58965;" d="M710.684108-61.190385c-1.619894 0-3.248997 0.191358-4.860704 0.582261-7.05058 1.714038-12.676717 7.013741-14.806217 13.947663L574.782905 331.614909 435.985746 213.998141l1.680269-204.552769c0.044002-5.451152-2.076288-10.69969-5.898337-14.58723l-34.361599-34.976606c-4.898567-4.986571-11.995195-7.14677-18.839067-5.730515-6.845918 1.414209-12.504802 6.206352-15.027252 12.726859l-74.372871 192.261838-199.609177 85.742826c-6.227842 2.675946-10.738575 8.245801-12.059664 14.894222-1.321088 6.64842 0.716314 13.519921 5.448082 18.374486l34.223452 35.101449c4.117784 4.221138 9.865695 6.465249 15.738449 6.186909l209.368448-10.253528 117.92376 144.683217L79.288834 574.833303c-6.809079 2.164293-12.009522 7.703449-13.735839 14.635325-1.728364 6.931876 0.264013 14.263865 5.26184 19.36914l65.386196 66.780963c4.374634 4.466732 10.543124 6.696516 16.762779 6.078439l469.724151-47.295166 133.106554 133.416616c53.017494 53.638641 103.833857 62.058404 129.411395 62.058404 0.12689 0 0.252757 0 0.379647 0 23.74275 0 44.731784-7.024997 56.20407-18.49626 27.703969-27.702945 26.328645-106.726743-48.302099-182.862771-0.052189-0.054235-0.104377-0.155543-0.158612-0.207731L759.046582 494.24487l37.570687-466.417849c0.477884-5.939269-1.641383-11.800767-5.810333-16.055674l-65.425082-66.781986C721.463616-59.008696 716.145493-61.190385 710.684108-61.190385zM585.288167 388.058432c1.933025 0 3.877307-0.271176 5.780657-0.829901 6.636141-1.943258 11.852956-7.090489 13.884218-13.701047l115.239628-375.038652 34.655288 35.372625-37.58092 466.543715c-0.484024 6.02011 1.699712 11.9471 5.973038 16.21224l140.944056 140.691299c34.582633 35.310204 46.758953 66.294892 50.881854 86.074378 5.081739 24.379247-0.685615 36.917818-2.385327 38.714743-7.572466 7.455809-65.029062 19.966751-127.676891-43.456744-0.026606-0.027629-0.054235-0.056282-0.082888-0.083911L644.895753 598.410278c-4.366448-4.370541-10.466376-6.550183-16.616446-5.92699l-469.596238 47.279816-35.077913-35.826973 377.883443-120.004141c6.493901-2.064009 11.544941-7.203052 13.490246-13.732769 1.947352-6.52767 0.534166-13.594623-3.767813-18.874883L367.604332 275.128407c-4.130064-5.069459-10.41828-7.860015-16.95516-7.553023l-210.489992 10.307763-6.839779-7.014764 180.036399-77.333296c5.083785-2.183735 9.072633-6.323009 11.069103-11.482519l65.98483-170.579003 6.03853 6.145977-1.688455 205.676359c-0.050142 6.106068 2.613524 11.918447 7.272637 15.865339l169.95274 144.018068C575.747883 386.371 580.477604 388.058432 585.288167 388.058432z"  horiz-adv-x="1024" />

    
    <glyph glyph-name="huoche" unicode="&#58970;" d="M818.521139 148.590456 818.521139 526.014434c0 80.256882-30.857798 156.080801-86.888929 213.502605-56.210209 57.607022-131.267673 89.972151-211.346499 91.133603-5.462408 0.077771-11.037381 0.077771-16.507976 0-80.651878-1.169639-156.249647-33.768081-212.867132-91.789543-56.43636-57.836243-87.516216-134.205585-87.516216-215.043704l0-374.162702c0 0-0.323365-12.450567 0.889253-15.093766 6.892991-56.229652 54.617945-99.993388 112.532983-100.623745l-77.260641-59.246359c-9.139148-7.008624-10.866489-20.09671-3.858888-29.234835 4.106528-5.355985 10.298554-8.165983 16.562211-8.165983 4.425799 0 8.889461 1.404999 12.672624 4.307096l39.97341 30.652114c0 0 405.79719 0.274246 407.537833 0.74599l40.945551-31.398104c3.783163-2.902096 8.246825-4.307096 12.673647-4.307096 6.261611 0 12.455683 2.812045 16.561188 8.165983 7.006578 9.139148 5.28026 22.228257-3.858888 29.234835l-77.219709 59.213613 2.291183 0C767.073396 33.90546 818.521139 85.353203 818.521139 148.590456zM320.758398 709.736782c48.861848 50.073442 114.075105 78.206176 183.620018 79.215156 2.533706 0.036839 5.085832 0.055259 7.656377 0.055259 2.569522 0 5.121648-0.01842 7.650237-0.055259 68.971861-1.000793 133.642766-28.900214 182.098361-78.56024 48.387034-49.587372 75.033927-115.066689 75.033927-184.377264l0-361.928053L245.097184 164.086381 245.097184 523.818419C245.097184 593.709209 271.967158 659.734972 320.758398 709.736782zM249.982448 122.382561l521.948583 0c-10.55438-27.328415-37.089733-46.774303-68.094888-46.774303L318.078359 75.608258C287.072181 75.609281 260.537851 95.054145 249.982448 122.382561zM659.029658 13.954059 359.288946 13.954059l26.018583 19.951401L633.011074 33.90546 659.029658 13.954059zM311.822888 455.111594l398.268726 0c11.515265 0 20.85191 9.335622 20.85191 20.85191L730.943524 596.903971c0 11.516288-9.336646 20.85191-20.85191 20.85191L311.822888 617.755882c-11.516288 0-20.85191-9.335622-20.85191-20.85191l0-120.940466C290.970978 464.447217 300.3066 455.111594 311.822888 455.111594zM689.239703 496.815415 529.703197 496.815415c0.013303 0.300852 0.045025 0.596588 0.045025 0.900509l0 78.337159 159.491481 0L689.239703 496.815415zM332.674798 576.052061l155.370627 0 0-78.337159c0-0.303922 0.032746-0.599657 0.045025-0.900509L332.674798 496.814392 332.674798 576.052061zM509.915525 373.727029c-46.962591 0-85.169775-38.20616-85.169775-85.167728 0-46.961568 38.207184-85.168752 85.169775-85.168752s85.168752 38.207184 85.168752 85.168752C595.084277 335.520869 556.878117 373.727029 509.915525 373.727029zM509.915525 245.095393c-23.966854 0-43.465954 19.498076-43.465954 43.464931 0 23.964808 19.4991 43.462884 43.465954 43.462884 23.965831 0 43.464931-19.498076 43.464931-43.462884C553.380456 264.592446 533.88238 245.095393 509.915525 245.095393zM444.256106 670.784632 573.536518 670.784632c11.516288 0 20.85191 9.335622 20.85191 20.85191 0 11.516288-9.335622 20.85191-20.85191 20.85191L444.256106 712.488453c-11.516288 0-20.85191-9.335622-20.85191-20.85191C423.404196 680.120254 432.739818 670.784632 444.256106 670.784632z"  horiz-adv-x="1024" />

    
    <glyph glyph-name="jianshen" unicode="&#58973;" d="M896.952442 635.39768 884.601136 635.39768c-7.614421 0-14.902408-1.38658-21.636786-3.90596l0 10.926864c0 45.404096-36.939307 82.34238-82.34238 82.34238l-2.058892 0c-45.403073 0-82.34238-36.938284-82.34238-82.34238L696.220698 431.600111 327.734276 431.600111 327.734276 642.419608c0 45.404096-36.938284 82.34238-82.34238 82.34238l-2.058892 0c-45.404096 0-82.34238-36.938284-82.34238-82.34238l0-10.909467c-6.722098 2.509147-13.994736 3.888564-21.591761 3.888564L127.047558 635.398704c-34.107819 0-61.757552-27.649733-61.757552-61.757552l0-405.538293c0-34.107819 27.649733-61.757552 61.757552-61.757552l12.351306 0c7.597025 0 14.869662 1.379417 21.591761 3.888564l0-15.395642c0-45.403073 36.938284-82.34238 82.34238-82.34238l2.058892 0c45.404096 0 82.34238 36.939307 82.34238 82.34238L327.734276 303.968246l368.484376 0 0-209.130018c0-45.403073 36.939307-82.34238 82.34238-82.34238l2.058892 0c45.403073 0 82.34238 36.939307 82.34238 82.34238l0 15.413038c6.734378-2.520403 14.023388-3.90596 21.636786-3.90596l12.351306 0c34.107819 0 61.757552 27.649733 61.757552 61.757552L958.707948 573.641151C958.708971 607.74897 931.059238 635.39768 896.952442 635.39768zM159.984714 168.102858c0-11.368932-9.216919-20.585851-20.585851-20.585851L127.047558 147.517007c-11.368932 0-20.585851 9.216919-20.585851 20.585851L106.461707 573.641151c0 11.368932 9.216919 20.585851 20.585851 20.585851l12.351306 0c11.368932 0 20.585851-9.216919 20.585851-20.585851L159.984714 168.102858zM245.391896 53.667549l-2.058892 0c-22.702048 0-41.171702 18.46863-41.171702 41.171702L202.161303 642.419608c0 22.702048 18.469654 41.171702 41.171702 41.171702l2.058892 0c22.701025 0 41.171702-18.469654 41.171702-41.171702l0-547.580357C286.563598 72.13618 268.093944 53.667549 245.391896 53.667549zM695.212742 345.139947 327.734276 345.139947l0 45.288462 367.477442 0L695.211718 345.139947zM821.791625 94.839251c0-22.702048-18.46863-41.171702-41.171702-41.171702l-2.058892 0c-22.702048 0-41.171702 18.46863-41.171702 41.171702L737.38933 642.419608c0 22.702048 18.46863 41.171702 41.171702 41.171702l2.058892 0c22.702048 0 41.171702-18.469654 41.171702-41.171702L821.791625 94.839251zM917.538293 168.102858c0-11.368932-9.216919-20.585851-20.585851-20.585851L884.601136 147.517007c-11.368932 0-20.585851 9.216919-20.585851 20.585851L864.015286 573.641151c0 11.368932 9.216919 20.585851 20.585851 20.585851l12.351306 0c11.368932 0 20.585851-9.216919 20.585851-20.585851L917.538293 168.102858z"  horiz-adv-x="1024" />

    
    <glyph glyph-name="kongdiao" unicode="&#58975;" d="M891.808282 189.900304l-137.431046 79.346139 129.427768 40.440038c10.902304 3.406586 16.978696 15.005762 13.57211 25.908066-3.405563 10.902304-15.007809 16.984836-25.908066 13.57211L705.676048 297.362804l-152.315034 87.938841L702.994985 471.693248l168.474063-52.640917c2.053776-0.642636 4.130064-0.947582 6.173606-0.947582 8.80555 0.002047 16.968463 5.671163 19.733437 14.518668 3.40761 10.902304-2.669806 22.500457-13.57211 25.908066l-132.109854 41.278125 139.079592 80.297814c9.892301 5.711072 13.281491 18.358113 7.569396 28.250414-5.709025 9.888208-18.358113 13.281491-28.250414 7.569396l-137.430022-79.345116 29.691229 132.306328c2.501984 11.143805-4.505617 22.205745-15.650445 24.705682-11.154038 2.512217-22.207791-4.507664-24.705682-15.650445l-38.034245-169.478949-151.258982-87.329974 0 172.457794 128.767735 118.607328c8.399297 7.739265 8.936533 20.822235 1.199315 29.223578-7.739265 8.397251-20.822235 8.93858-29.223578 1.199315l-100.743472-92.795453L532.704554 810.028976c0 11.422144-9.259898 20.681018-20.681018 20.681018-11.42112 0-20.681018-9.258874-20.681018-20.681018l0-160.243611-100.792591 92.840478c-8.399297 7.737218-21.482267 7.199982-29.222555-1.199315-7.738241-8.401344-7.201006-21.484314 1.200338-29.223578l128.814808-118.652354 0-172.440397L340.632027 508.121925l-38.033221 169.479973c-2.50096 11.145851-13.5629 18.162662-24.706705 15.650445-11.144828-2.499937-18.152429-13.561877-15.651468-24.705682l29.690206-132.306328L153.906276 615.928257c-9.890254 5.711072-22.541389 2.322905-28.250414-7.569396-5.711072-9.892301-2.321882-22.539342 7.569396-28.250414l139.674133-80.640622-132.107807-41.278125c-10.902304-3.406586-16.977673-15.005762-13.57211-25.908066 2.764973-8.849552 10.926864-14.518668 19.733437-14.518668 2.042519 0 4.120854 0.304945 6.173606 0.947582l168.472016 52.639894 149.038408-86.047772L318.91747 297.706635l-165.78993 51.80283c-10.900258 3.405563-22.500457-2.669806-25.908066-13.57211-3.406586-10.902304 2.669806-22.500457 13.57211-25.908066l129.425721-40.440038-138.025587-79.68997c-9.891278-5.711072-13.281491-18.358113-7.569396-28.250414 3.830235-6.634094 10.781554-10.344602 17.929348-10.344602 3.507894 0 7.064906 0.89437 10.321066 2.775206l139.674133 80.640622-30.305213-135.047766c-2.50096-11.144828 4.505617-22.205745 15.651468-24.705682 1.524726-0.343831 3.046383-0.506537 4.547573-0.506537 9.462512 0 18.000979 6.537903 20.160155 16.156982l38.648229 172.22141 150.095483 86.657662 0-175.513386L362.52771 55.330422c-8.401344-7.739265-8.93858-20.822235-1.200338-29.223578 7.738241-8.397251 20.821211-8.93244 29.222555-1.199315l100.792591 92.840478 0-159.774937c0-11.42112 9.259898-20.681018 20.681018-20.681018 11.42112 0 20.681018 9.259898 20.681018 20.681018L532.704554 117.701958l100.743472-92.795453c3.976568-3.66139 8.996908-5.469572 14.005992-5.469572 5.578042 0 11.140735 2.24411 15.217586 6.668886 7.737218 8.401344 7.199982 21.484314-1.199315 29.223578L532.704554 173.93775 532.704554 349.468532l150.643975-86.974887L721.997782 90.273259c2.159176-9.621125 10.695596-16.156982 20.160155-16.156982 1.49812 0 3.02387 0.163729 4.546549 0.506537 11.143805 2.499937 18.152429 13.561877 15.650445 24.705682l-30.306236 135.047766 139.079592-80.297814c3.257184-1.879813 6.812149-2.775206 10.320043-2.775206 7.147794 0 14.101159 3.710508 17.930371 10.344602C905.089773 171.541167 901.700583 184.188208 891.808282 189.900304z"  horiz-adv-x="1024" />

    
    <glyph glyph-name="quguo" unicode="&#58979;" d="M906.758786 736.249623c-8.596795 2.755764-17.993816-0.361227-23.24133-7.710612-0.14224-0.199545-15.103999-19.976984-45.1145-19.976984-22.039969 0-35.931351 11.063987-41.836851 17.047258l0 36.556591c0 7.643074-4.198625 14.670118-10.92891 18.291598-0.981351 0.528026-24.515347 13.078877-65.707514 25.484418C682.407088 817.240215 622.0003 830.709995 547.305087 830.709995c-94.376461 0-163.395394-16.494673-200.300932-28.109198l0 7.338129c0 11.472286-9.299807 20.771069-20.771069 20.771069l-87.2389 0c-11.472286 0-20.771069-9.299807-20.771069-20.771069l0-743.865835L123.57855 66.07309c-11.471262 0-20.771069-9.299807-20.771069-20.771069l0-87.2389c0-11.471262 9.299807-20.771069 20.771069-20.771069l315.722708 0c11.471262 0 20.771069 9.299807 20.771069 20.771069l0 87.2389c0 11.471262-9.299807 20.771069-20.771069 20.771069l-92.297103 0 0 212.81699c28.248368 9.842159 99.945293 30.463826 204.91809 30.463826 27.13808 0 51.934836-1.411139 74.319659-3.650133l0-19.198248c0-5.290493 2.01796-10.379395 5.641487-14.231119 2.087545-2.217505 52.189639-54.313 147.775648-54.313 97.472985 0 136.241964 54.411237 137.844461 56.726979 2.4017 3.473101 3.690042 7.594979 3.690042 11.818163L921.193543 716.468091C921.192519 725.498768 915.358651 733.493859 906.758786 736.249623zM418.529165-21.166833 144.349619-21.166833l0 45.696762 89.00615 0c1.794879-0.505513 3.680832-0.795109 5.637394-0.795109l87.2389 0c1.956561 0 3.842515 0.289596 5.637394 0.795109l86.659709 0L418.529165-21.166833zM259.764232 66.072067 259.764232 789.166833l45.696762 0 0-9.865695c-0.738827-2.14178-1.173732-4.406356-1.173732-6.750751l0-479.81395c0-2.343371 0.427742-4.622274 1.173732-6.776334l0-219.888036L259.764232 66.072067zM347.003132 322.64563 347.003132 758.787942c27.857465 9.850345 98.16781 30.379914 200.300932 30.379914 69.001537 0 124.732839-12.296047 159.333892-22.611997 21.964244-6.548136 38.440497-13.150508 48.383964-17.530258L755.021919 322.525903c-21.574365 6.885827-54.636365 15.545044-98.1586 21.474081-2.931772 1.583055-6.28617 2.483564-9.851369 2.483564-1.713015 0-3.369747-0.230244-4.962012-0.621147-26.616194 3.060709-56.724932 5.033643-90.128717 5.033643C454.824813 350.895021 384.360971 334.256062 347.003132 322.64563zM879.650381 294.12404c-9.937326-10.249435-39.887452-34.621519-99.992365-34.621519-61.129242 0-98.425683 25.118074-111.873973 36.168758l0 4.586458c63.388702-10.381441 98.444103-25.990954 99.310843-26.384927 6.424316-2.961448 13.916964-2.452865 19.882839 1.358951 5.974062 3.815909 9.588379 10.414187 9.588379 17.503653l0 383.228171c11.342326-5.173836 25.273616-8.945743 41.836851-8.945743 16.272615 0 30.018687 3.560082 41.24845 8.484232L879.651404 294.12404z"  horiz-adv-x="1024" />

    
    <glyph glyph-name="shebeiguanli" unicode="&#58972;" d="M338.958078 896 144.980804 896C65.347311 896 0.010127 830.657872 0.010127 752.045967l0-193.973318c0-78.613883 65.337184-140.891245 143.949089-140.891245l334.866541 0L478.825756 752.045967C478.825756 830.657872 416.548394 896 338.958078 896L338.958078 896zM408.379639 487.627521 143.959216 487.627521c-38.793675 0-72.487317 31.648486-72.487317 70.445128l0 193.973318c0 38.798619 33.693642 72.487317 72.487317 72.487317l193.978263 0c38.793675 0 70.44315-32.670075 70.44315-72.487317L408.380628 487.627521 408.379639 487.627521zM884.137425 896 690.159162 896c-78.611905 0-143.957-65.342128-143.957-143.954033l0-334.863574 337.934274 0c78.602015 0 139.857789 62.276373 139.857789 140.891245l0 193.973318C1023.994225 830.657872 961.725763 896 884.137425 896L884.137425 896zM952.543331 558.072649c0-38.796642-29.614209-70.445128-69.439362-70.445128L615.631635 487.627521 615.631635 753.066566c0 38.796642 34.707319 72.487317 73.508906 72.487317l193.96244 0c38.811476 0 69.439362-32.670075 69.439362-72.487317L952.542342 558.072649 952.543331 558.072649zM0.010127 206.874531l0-193.982219c0-78.60696 65.337184-140.891245 143.949089-140.891245l193.978263 0c78.611905 0 139.867678 62.284285 139.867678 140.891245L477.805156 350.815709 143.959216 350.815709C65.347311 350.815709 0.010127 285.480503 0.010127 206.874531L0.010127 206.874531zM408.379639 12.891324c0-38.791697-30.627887-69.419583-70.44315-69.419583L143.959216-56.528259c-38.793675 0-72.487317 30.627887-72.487317 69.419583L71.471899 206.874531c0 38.796642 33.693642 73.503961 72.487317 73.503961l264.420424 0L408.379639 12.891324 408.379639 12.891324zM884.137425 350.815709 545.184529 350.815709l0-337.924385c0-78.60696 65.340151-140.891245 143.957-140.891245l193.96244 0c78.621795 0 139.877568 62.284285 139.877568 140.891245L1022.981536 206.874531C1023.994225 285.480503 961.725763 350.815709 884.137425 350.815709L884.137425 350.815709zM952.543331 12.891324c0-38.791697-29.614209-69.419583-69.439362-69.419583L689.14054-56.528259c-38.801586 0-73.508906 30.627887-73.508906 69.419583L615.631635 280.377503l268.504801 0c38.791697 0 69.419583-33.693642 69.419583-73.503961l0-193.982219L952.543331 12.891324z"  horiz-adv-x="1024" />

    
    <glyph glyph-name="close1" unicode="&#58892;" d="M828.324924 701.505307c-175.027315 175.028339-458.803427 175.028339-633.830743 0-175.027315-175.027315-175.027315-458.803427 0-633.831766 175.028339-175.027315 458.803427-175.026292 633.830743 0.001023S1003.352239 526.477992 828.324924 701.505307zM510.324336 356.73196 262.148024 108.555647l-28.943193 28.943193 248.176312 248.176312L233.203808 633.852488l28.943193 28.943193 248.177336-248.176312L758.501672 662.795681l28.943193-28.943193L539.267529 385.675152l248.176312-248.176312-28.943193-28.943193L510.324336 356.73196z"  horiz-adv-x="1024" />

    
    <glyph glyph-name="delete" unicode="&#58902;" d="M677.647059 640l0 90.352941c0 37.436235-23.461647 60.235294-61.771294 60.235294L408.094118 790.588235c-38.249412 0-61.741176-22.799059-61.741176-60.235294l0-90.352941-180.705882 0 0-60.235294 60.235294 0 0-512c0-54.272 33.972706-90.352941 90.352941-90.352941l391.529412 0c55.085176 0 90.352941 33.490824 90.352941 90.352941l0 512 60.235294 0 0 60.235294L677.647059 640zM406.588235 730.352941l210.823529 0-1.264941-90.352941L406.588235 640 406.588235 730.352941zM737.882353 37.647059l-451.764706 0 0 542.117647 451.764706 0L737.882353 37.647059zM466.823529 519.529412l-58.729412 0-1.505882-391.529412 60.235294 0L466.823529 519.529412zM617.411765 519.529412l-60.235294 0 0-391.529412 60.235294 0L617.411765 519.529412z"  horiz-adv-x="1024" />

    
    <glyph glyph-name="eye1" unicode="&#58893;" d="M512 656C178.704 656 12.304 412.128 5.376 401.744c-7.168-10.752-7.168-24.752 0-35.504C12.304 355.872 178.704 112 512 112s499.696 243.872 506.624 254.256c7.168 10.752 7.168 24.752 0 35.504C1011.696 412.128 845.296 656 512 656zM512 176C263.888 176 115.744 330.848 72.192 384.064 115.6 437.392 262.976 592 512 592c248.112 0 396.256-154.848 439.808-208.064C908.4 330.608 761.024 176 512 176zM512 528c-79.408 0-144-64.608-144-144s64.592-144 144-144 144 64.608 144 144S591.408 528 512 528zM512 304c-44.112 0-80 35.888-80 80s35.888 80 80 80 80-35.888 80-80S556.112 304 512 304z"  horiz-adv-x="1024" />

    
    <glyph glyph-name="close2" unicode="&#58882;" d="M937.281581 96.745236 937.281581 96.745236 937.281581 96.745236 937.281581 96.745236zM1002.320395 385.08398c0 270.99506-220.409315 491.404375-491.404375 491.404375-270.99506 0-491.404375-220.409315-491.404375-491.404375 0-270.99506 220.409315-491.404375 491.404375-491.404375C781.91108-106.320395 1002.320395 114.08892 1002.320395 385.08398M510.91602-35.500353c-231.971771 0-421.306987 188.612562-421.306987 421.306987 0 231.971771 188.612562 421.306987 421.306987 421.306987 231.971771 0 421.306987-188.612562 421.306987-421.306987C931.500353 153.112209 742.887791-35.500353 510.91602-35.500353M712.536344 231.158786l-151.757234 152.479887 151.757234 150.311927c13.730416 13.730416 13.730416 36.132675 0 49.863091-13.730416 13.730416-36.132675 13.730416-49.863091 0L510.91602 433.501764 360.604093 583.813691c-13.730416 13.730416-36.132675 13.730416-49.863091 0-13.730416-13.730416-13.730416-36.132675 0-49.863091l149.589273-150.311927L310.018349 234.772054c-13.730416-13.730416-13.730416-36.132675 0-49.863091 7.226535-7.226535 15.898377-10.117149 24.570219-10.117149 8.671842 0 18.066337 3.613267 24.570219 10.117149l151.03458 149.589273 152.479887-152.479887c6.503881-6.503881 15.898377-10.117149 24.570219-10.117149 8.671842 0 18.066337 3.613267 24.570219 10.117149C725.544107 195.026112 725.544107 217.42837 712.536344 231.158786"  horiz-adv-x="1024" />

    
    <glyph glyph-name="arrowdownb" unicode="&#59014;" d="M197.8 526.6l3.6-4.2 272-313c9.2-10.6 23-17.2 38.4-17.2 15.4 0 29.2 6.8 38.4 17.2L822 521.8l4.6 5.2c3.4 5 5.4 11 5.4 17.4 0 17.4-14.8 31.6-33.2 31.6l0 0L225.2 576l0 0c-18.4 0-33.2-14.2-33.2-31.6C192 537.8 194.2 531.6 197.8 526.6z"  horiz-adv-x="1024" />

    
    <glyph glyph-name="arrowupb" unicode="&#59034;" d="M826.2 241.4l-3.6 4.2-272 313c-9.2 10.6-23 17.2-38.4 17.2-15.4 0-29.2-6.8-38.4-17.2L202 246.2l-4.6-5.2C194 236 192 230 192 223.6c0-17.4 14.8-31.6 33.2-31.6l0 0 573.6 0 0 0c18.4 0 33.2 14.2 33.2 31.6C832 230.2 829.8 236.4 826.2 241.4z"  horiz-adv-x="1024" />

    
    <glyph glyph-name="shujutongji1" unicode="&#58971;" d="M53.423316-57.37931C62.919503-57.37931 70.62069-65.079755 70.62069-74.576614L70.62069 860.689655C70.62069 880.191011 54.811719 896 35.310345 896 15.808971 896 0 880.191011 0 860.689655L0-74.576614C0-104.084092 23.918345-128 53.423316-128L988.689655-128C1008.191029-128 1024-112.191011 1024-92.689655 1024-73.188299 1008.191029-57.37931 988.689655-57.37931L53.423316-57.37931ZM863.548734 33.366969C863.548734 13.865613 879.357705-1.943375 898.859079-1.943375 918.360452-1.943375 934.169423 13.865613 934.169423 33.366969L934.169423 788.727261C934.169423 808.228617 918.360452 824.037606 898.859079 824.037606 879.357705 824.037606 863.548734 808.228617 863.548734 788.727261L863.548734 33.366969ZM332.82613 33.114765C332.82613 13.613391 348.635101-2.19558 368.136474-2.19558 387.637848-2.19558 403.446819 13.613391 403.446819 33.114765L403.446819 573.092281C403.446819 592.593655 387.637848 608.402626 368.136474 608.402626 348.635101 608.402626 332.82613 592.593655 332.82613 573.092281L332.82613 33.114765ZM232.536099 573.092281C232.536099 592.593655 216.727128 608.402626 197.225754 608.402626 177.724381 608.402626 161.91541 592.593655 161.91541 573.092281L161.91541 33.114765C161.91541 13.613391 177.724381-2.19558 197.225754-2.19558 216.727128-2.19558 232.536099 13.613391 232.536099 33.114765L232.536099 573.092281ZM674.647393 33.288828C674.647393 13.787454 690.456364-2.021517 709.957738-2.021517 729.459112-2.021517 745.268083 13.787454 745.268083 33.288828L745.268083 393.012224C745.268083 412.513598 729.459112 428.322569 709.957738 428.322569 690.456364 428.322569 674.647393 412.513598 674.647393 393.012224L674.647393 33.288828ZM574.357539 393.012224C574.357539 412.513598 558.548568 428.322569 539.047194 428.322569 519.545821 428.322569 503.73685 412.513598 503.73685 393.012224L503.73685 33.288828C503.73685 13.787454 519.545821-2.021517 539.047194-2.021517 558.548568-2.021517 574.357539 13.787454 574.357539 33.288828L574.357539 393.012224Z"  horiz-adv-x="1024" />

    
    <glyph glyph-name="close3" unicode="&#58898;" d="M912.290909 737.745455v148.945454H0v-875.054545h130.327273v-130.327273h893.672727v856.436364h-111.709091z m-875.054545-688.872728v800.581818h837.818181v-111.70909H130.327273v-688.872728H37.236364z m949.527272-130.327272H167.563636v781.963636h819.2v-781.963636zM735.138909 467.502545a18.599564 18.599564 0 0 1-26.326109 0L577.163636 335.853382l-131.649163 131.649163a18.599564 18.599564 0 1 1-26.326109-26.326109l131.649163-131.649163-131.649163-131.649164a18.599564 18.599564 0 1 1 26.326109-26.326109L577.163636 283.201164l131.649164-131.649164a18.562327 18.562327 0 0 1 26.326109 0 18.599564 18.599564 0 0 1 0 26.326109L603.489745 309.527273l131.649164 131.649163a18.599564 18.599564 0 0 1 0 26.326109z"  horiz-adv-x="1024" />

    
    <glyph glyph-name="apps" unicode="&#58922;" d="M170.666667 554.666667h170.666666V725.333333H170.666667v-170.666666z m256-512h170.666666v170.666666h-170.666666v-170.666666z m-256 0h170.666666v170.666666H170.666667v-170.666666z m0 256h170.666666v170.666666H170.666667v-170.666666z m256 0h170.666666v170.666666h-170.666666v-170.666666z m256 426.666666v-170.666666h170.666666V725.333333h-170.666666z m-256-170.666666h170.666666V725.333333h-170.666666v-170.666666z m256-256h170.666666v170.666666h-170.666666v-170.666666z m0-256h170.666666v170.666666h-170.666666v-170.666666z"  horiz-adv-x="1024" />

    
    <glyph glyph-name="close4" unicode="&#58921;" d="M816 80m-32 0a32 32 0 1 1 64 0 32 32 0 1 1-64 0ZM512-72a456 456 0 1 0 395.76 229.36 32 32 0 0 0-55.52 32 392 392 0 1 1-145.44-145.44 32 32 0 0 0 32-55.52A456 456 0 0 0 512-72zM376 216a32 32 0 0 0-22.64 54.64L625.12 542.4a32 32 0 1 0 45.28-45.28L398.88 225.6A32 32 0 0 0 376 216zM648 216a32 32 0 0 0-22.64 9.36L353.6 497.12a32 32 0 0 0 45.28 45.28L670.4 270.88A32 32 0 0 0 648 216z"  horiz-adv-x="1024" />

    
    <glyph glyph-name="apple" unicode="&#58894;" d="M843.354 225.882c-28.25 40.599-42.405 86.74-42.405 137.216 0 46.743 13.553 89.27 39.996 127.398 14.758 21.504 38.129 45.538 70.174 72.584-20.902 25.9-42.526 46.802-64.03 61.56-38.19 26.443-81.8 39.996-131.072 39.996-30.178 0-65.837-7.409-106.436-20.901-40.659-14.156-70.174-20.962-88.004-20.962-14.215 0-42.526 6.144-84.992 18.492-43.068 12.288-78.787 18.432-108.905 18.432-70.837 0-128.663-29.576-174.743-88.606-46.14-59.693-69.511-136.011-69.511-230.16 0-100.893 30.78-203.655 90.413-309.548C234.737-74.451 295.695-128 359.063-128c20.299 0 47.405 6.746 81.257 20.962 33.31 13.493 62.765 20.3 87.401 20.3 25.239 0 56.561-6.145 92.883-19.698 36.985-12.89 65.235-19.697 86.197-19.697 52.284 0 105.231 40.057 158.178 120.652 35.66 53.549 60.295 105.23 75.655 153.84-36.261 11.024-68.909 36.865-97.28 77.523z m-28.792-198.354c-39.575-60.236-77.884-93.486-107.821-93.486-8.855 0-27.648 2.831-65.115 15.902-41.743 15.601-80.113 23.492-113.965 23.492-32.587 0-69.572-8.312-110.712-24.997-34.937-14.638-52.104-16.204-57.886-16.204-37.828 0-85.053 45.9-132.759 128.723-55.597 98.726-82.643 190.283-82.643 279.974 0 80.474 18.673 143.781 56.742 193.114 34.876 44.634 75.354 65.416 127.277 65.416 24.154 0 54.332-5.301 92.1-16.083 63.307-18.372 86.98-20.842 101.737-20.842 25.6 0 60.838 7.951 107.038 24.034 35.479 11.806 64.874 17.83 87.341 17.83 36.684 0 68.368-9.577 96.98-29.455a189.755 189.755 0 0 0 12.287-9.337c-13.733-14.215-24.937-27.768-33.852-40.779-33.732-48.55-50.778-102.942-50.778-161.792 0-63.126 17.89-120.832 53.248-171.67 21.323-30.42 45.056-54.694 71.198-72.644-13.071-30.058-29.997-60.597-50.417-91.196z m-246.905 629.7c-14.155-4.338-35.057-8.012-63.97-10.482 1.265 60.898 17.228 113.845 48.008 158.118C582.475 849.257 634.097 879.375 705.596 896c1.205-5.542 2.41-9.879 3.012-13.553 0-4.277 0.663-7.951 0.663-12.288 0-25.239-6.144-53.55-17.83-83.727-12.288-30.78-31.383-59.09-57.284-84.932-22.166-22.106-44.333-36.864-66.5-44.273z"  horiz-adv-x="1024" />

    
    <glyph glyph-name="bianjishuru-xianxing" unicode="&#59596;" d="M960-64H64v64h896v-64z m-73.6 686.4l-84-84-45.6-45.6L384 120l-192-56 56 192 502.4 502.4c4 4 9.6 6.4 14.4 6.4 4 0 8-1.6 10.4-4L888 648c7.2-7.2 5.6-17.6-1.6-25.6zM712 538.4L666.4 584 304.8 222.4l-18.4-64 64 18.4L712 538.4z m97.6 97.6l-45.6 45.6-52-52 45.6-45.6 52 52z"  horiz-adv-x="1024" />

    
    <glyph glyph-name="bianjishuru" unicode="&#59597;" d="M686.4 672c-6.4 6.4-6.4 16 0 22.4l68 68c6.4 6.4 16 6.4 22.4 0l112.8-112.8c6.4-6.4 6.4-16 0-22.4l-68-68c-6.4-6.4-16-6.4-22.4 0L686.4 672zM384 120l372 372c5.6 5.6 4.8 15.2-1.6 20.8L641.6 626.4c-6.4 6.4-16 7.2-20.8 1.6L248 256l-56-192 192 56zM64 0v-64h896v64H64z"  horiz-adv-x="1024" />

    
    <glyph glyph-name="icon" unicode="&#58903;" d="M347.856 32.032h-0.528l0.528-2.224v2.224zM347.856-56.944v83.728l-0.352-1.632c-1.824-8.496-11.008-14-23.424-14H60.944c-12.336 0-21.488 5.44-23.328 13.856l-0.336 1.664v-83.616c-0.912-4.48 0-8.736 2.688-12.24 4.048-5.328 11.68-8.384 20.976-8.384h263.152c9.296 0 16.944 3.056 21.024 8.4a14.72 14.72 0 0 1 2.736 12.224zM100.272-75.856c-22.08 0-40.528 19.552-40.528 43.008 0 23.456 18.432 43.008 40.528 43.008S140.8-9.408 140.8-32.848c0-23.472-18.432-43.008-40.528-43.008z m120.48 10.32h-35.552v63.648h35.552v-63.648z m46.928-0.512h-35.312v64.16h35.312v-64.16z m49.52 1.008h-36.032v62.912h36.032v-62.912zM324.096 18.88H60.944c-10.128 0-18.096 3.536-21.872 9.68-2.608 4.256-2.832 9.472-0.624 14.704l14.432 34.352 8.528 20.288 2.144 5.072h258.016l2.16-5.088c6.848-16.304 14.432-34.416 22.96-54.64 2.176-5.2 1.952-10.384-0.64-14.656-3.744-6.08-11.952-9.712-21.952-9.712zM124.896-34.416l0.016 0.832c0 13.84-10.896 25.408-23.952 25.408l-0.832 0.064c-13.024-0.352-23.504-11.728-23.504-25.664 0-14.128 10.816-25.632 24.128-25.632 12.992 0 23.616 10.944 24.128 24.592l0.016 0.4zM100.752 3.36c18.496 0 33.536-15.968 33.536-35.6 0-19.648-15.04-35.616-33.536-35.616s-33.536 15.968-33.536 35.616c0.016 19.632 15.056 35.6 33.536 35.6zM100.752 3.728c18.672 0 33.888-16.144 33.888-35.968 0-19.856-15.216-35.984-33.888-35.984-18.688 0-33.888 16.144-33.888 35.984 0.016 19.824 15.2 35.968 33.888 35.968z m33.552-35.968c0 19.632-15.04 35.6-33.536 35.6s-33.536-15.968-33.536-35.6c0-19.648 15.04-35.616 33.536-35.616s33.536 15.984 33.536 35.616zM186.944-5.536h32.032v-7.68h-32.032v7.68zM186.944-13.968h32.032v-7.296h-32.032v7.296zM186.944-21.92h32.032v-7.312h-32.032v7.312zM186.944-30.096h32.032v-7.312h-32.032v7.312zM186.944-38.16h32.032v-7.28h-32.032v7.28zM186.944-46.4h32.032v-7.296h-32.032V-46.4zM186.944-54.512h32.032v-7.28h-32.032v7.28zM233.872-5.632h32.016v-7.664h-32.016v7.664zM233.872-14.048h32.016v-7.28h-32.016v7.28zM233.872-22h32.016v-7.312h-32.016v7.312zM233.872-30.192h32.016v-7.28h-32.016v7.28zM233.872-38.24h32.016v-7.296h-32.016v7.296zM233.872-46.496h32.016v-7.28h-32.016v7.28zM233.872-54.576h32.016v-7.312h-32.016v7.312zM282.912-5.408h32.032v-7.68h-32.032v7.68zM282.912-13.824h32.032v-7.296h-32.032v7.296zM282.912-21.792h32.032v-7.296h-32.032v7.296zM282.912-29.936h32.032v-7.328h-32.032v7.328zM282.912-38h32.032v-7.296h-32.032v7.296zM282.912-46.272h32.032v-7.296h-32.032v7.296zM282.912-54.352h32.032v-7.328h-32.032v7.328zM89.36 756.192H43.872V790.32h45.488v7.984H43.872V832.416H136.4V865.92H31.968v-222.24h104.4v23.68H89.36V756.192z m-26.592-46.496H43.792v10.608h18.976v-10.608z m0 19.136H43.792v10.608h18.976v-10.608z m-11.84 53.328h38.448v-19.056H50.928V782.16z m0 42.72h38.448v-19.04H50.928v19.04z m52.208-4.496v-141.376h236.992V820.384H103.136z m223.04-127.44H117.104V806.432h209.104v-113.488z m-64.656-21.6h-79.776v-15.968h-15.824v-11.68h111.44v11.68h-15.84v15.984zM735.088 508.528a240.928 240.928 0 0 0 94.384 19.152c3.216 0 6.448-0.144 9.68-0.144 15.36 38.8 19.264 84.672 11.536 129.232-17.84 102.256-114.336 170.592-215.696 152.608-101.264-18.016-186.784-96.752-168.784-199.008 3.808-22.064 14.496-56.496 27.168-81.408L309.408 263.584c-6.72-9.712-10.688-27.296-8.56-39.232l8-45.456c-7.584 43.744 2.096-15.744 8.032-15.584l60.576-0.848c11.68 2.064 26.32 11.92 32.784 21.936l72.72 113.744 0.688 0.704 63.584-5.056 84.944 133.168c0.272 0 0.56-0.144 0.832-0.144a253.92 253.92 0 0 0 25.168 29.552 236.768 236.768 0 0 0 76.912 52.16zM349.232 235.6l-9.008-3.808 0.976 9.84L517.44 497.424l10.528-9.84-178.736-251.984z m267.744 470.672c27.872 40.08 82.72 50.048 122.352 21.808 39.792-28.272 49.504-83.664 21.648-123.76-27.808-40.064-56.256-11.808-96.048 16.32-39.648 28.256-75.808 45.392-47.952 85.632z m210.112-227.808c-106.752 0-193.232-86.48-193.232-193.232 0-106.768 86.48-193.248 193.232-193.248 106.736 0 193.216 86.48 193.216 193.248 0.016 106.752-86.48 193.232-193.216 193.232z m111.664-272.56c0-28.832-55.28-35.456-107.168-35.456-51.904 0-107.84 6.624-107.84 35.456v8c0 21.264 38.256 42.768 70.72 54.448 2.4 0.848 13.664 7.024 7.312 23.488-16.16 16.416-28.272 43.152-28.272 69.456 0 40.224 26.576 61.312 57.776 61.312 31.104 0 57.968-21.088 57.968-61.312 0-26.176-12.256-52.72-28.272-69.328h0.128c-6.176-18.736 3.664-23.216 5.2-23.616 34.192-11.264 72.56-32.64 72.56-54.448l-0.112-8zM120 604h36v-56H120zM119.664 523.008h36v-56h-36zM154.672 402.752h70.496v-31.68H154.672zM119.664 441.008h36v-114.016h-36zM119.328 294h36v-56h-36zM119.008 212.992h36v-56h-36zM262.672 402.752h79.488v-31.664h-79.488z"  horiz-adv-x="1024" />

    
    <glyph glyph-name="CLOSE" unicode="&#59110;" d="M184.64768 59.65824a20.50048 20.50048 0 0 1 28.9792 0.02048l292.70016 293.04832 292.70016-293.04832a20.48 20.48 0 1 1 28.99968 28.93824L535.61344 381.35808 828.0064 674.07872a20.48 20.48 0 1 1-28.9792 28.93824L506.30656 409.96864 213.6064 703.01696a20.48 20.48 0 1 1-28.9792-28.93824l292.37248-292.72064L184.6272 88.61696a20.48 20.48 0 0 1 0.02048-28.95872z"  horiz-adv-x="1024" />

    
    <glyph glyph-name="icon-test" unicode="&#58883;" d="M96 832c17.673 0 32-14.327 32-32v-832c0-17.673-14.327-32-32-32s-32 14.327-32 32v832c0 17.673 14.327 32 32 32zM926.4 670.4c5.789-5.791 9.369-13.789 9.369-22.624 0-8.835-3.58-16.833-9.369-22.624l-271.488-271.488c-5.749-5.558-13.59-8.983-22.231-8.983-17.673 0-32 14.327-32 32 0 8.641 3.425 16.482 8.991 22.24l271.479 271.479c5.791 5.789 13.789 9.369 22.624 9.369s16.833-3.58 22.624-9.369zM465.152 593.152c5.789-5.791 9.369-13.789 9.369-22.624s-3.58-16.833-9.369-22.624l-181.056-181.056c-5.749-5.558-13.59-8.983-22.231-8.983-17.673 0-32 14.327-32 32 0 8.641 3.425 16.482 8.991 22.24l180.983 180.983c5.797 5.827 13.821 9.433 22.688 9.433 8.835 0 16.834-3.58 22.624-9.369zM426.304 598.72c-6.045-6.055-9.783-14.415-9.783-23.648s3.738-17.593 9.784-23.648l189.12-189.12c5.942-5.483 13.913-8.844 22.668-8.844 18.486 0 33.472 14.986 33.472 33.472 0 8.756-3.362 16.726-8.865 22.691l-189.099 189.097c-6.034 6.092-14.4 9.864-23.648 9.864s-17.614-3.772-23.645-9.861zM960-32c0-17.673-14.327-32-32-32h-832c-17.673 0-32 14.327-32 32s14.327 32 32 32h832c17.673 0 32-14.327 32-32z"  horiz-adv-x="1024" />

    
    <glyph glyph-name="shebeiguanli1" unicode="&#58891;" d="M732.689655 896h-247.172414c-30.013793 0-52.965517-22.951724-52.965517-52.965517v-812.137931h-70.62069v812.137931c0 28.248276-22.951724 52.965517-52.965517 52.965517h-247.172414c-30.013793 0-52.965517-22.951724-52.965517-52.965517v-918.068966c0-28.248276 22.951724-52.965517 52.965517-52.965517h247.172414c30.013793 0 52.965517 22.951724 52.965517 52.965517v35.310345h70.62069v-35.310345c0-28.248276 22.951724-52.965517 52.965517-52.965517h247.172414c30.013793 0 52.965517 22.951724 52.965517 52.965517v918.068966c0 30.013793-22.951724 52.965517-52.965517 52.965517z m-564.965517-935.724138h-70.62069v70.62069h70.62069v-70.62069z m105.931034 776.827586h-176.551724v70.62069h176.551724v-70.62069z m317.793104-776.827586h-70.62069v70.62069h70.62069v-70.62069z m105.931034 776.827586h-176.551724v70.62069h176.551724v-70.62069zM963.972414-128c-28.248276 0-51.2 22.951724-51.2 51.2v921.6c0 28.248276 22.951724 51.2 51.2 51.2 28.248276 0 51.2-22.951724 51.2-51.2v-921.6c0-28.248276-22.951724-51.2-51.2-51.2z"  horiz-adv-x="1024" />

    
    <glyph glyph-name="triangle-arrow-r" unicode="&#59306;" d="M431 622.4l212.9-212.9c14.1-14.1 14.1-36.9 0-50.9L431 145.6c-22.7-22.7-61.5-6.6-61.5 25.5V596.9c0 32.1 38.8 48.1 61.5 25.5z"  horiz-adv-x="1024" />

    
    <glyph glyph-name="triangle-arrow-l" unicode="&#59307;" d="M593 622.4L380.1 409.5c-14.1-14.1-14.1-36.9 0-50.9l212.9-213c22.7-22.7 61.5-6.6 61.5 25.5V596.9c0 32.1-38.8 48.1-61.5 25.5z"  horiz-adv-x="1024" />

    
    <glyph glyph-name="triangle-arrow-u" unicode="&#59308;" d="M273.6 303l212.9 212.9c14.1 14.1 36.9 14.1 50.9 0l213-212.9c22.7-22.7 6.6-61.5-25.5-61.5H299.1c-32.1 0-48.1 38.8-25.5 61.5z"  horiz-adv-x="1024" />

    
    <glyph glyph-name="triangle-arrow-d" unicode="&#59309;" d="M273.6 465l212.9-212.9c14.1-14.1 36.9-14.1 50.9 0l213 212.9c22.7 22.7 6.6 61.5-25.5 61.5H299.1c-32.1 0-48.1-38.8-25.5-61.5z"  horiz-adv-x="1024" />

    
    <glyph glyph-name="icon-" unicode="&#58956;" d="M860.16 711.68H163.84a122.88 122.88 0 0 1-122.88-122.88v-40.96a122.88 122.88 0 0 1 122.88-122.88h696.32a122.88 122.88 0 0 1 122.88 122.88v40.96a122.88 122.88 0 0 1-122.88 122.88z m81.92-163.84a81.92 81.92 0 0 0-81.92-81.92H163.84a81.92 81.92 0 0 0-81.92 81.92v40.96a81.92 81.92 0 0 0 81.92 81.92h696.32a81.92 81.92 0 0 0 81.92-81.92zM860.16 343.04H163.84a122.88 122.88 0 0 1-122.88-122.88v-40.96a122.88 122.88 0 0 1 122.88-122.88h696.32a122.88 122.88 0 0 1 122.88 122.88v40.96a122.88 122.88 0 0 1-122.88 122.88z m81.92-163.84a81.92 81.92 0 0 0-81.92-81.92H163.84a81.92 81.92 0 0 0-81.92 81.92v40.96a81.92 81.92 0 0 0 81.92 81.92h696.32a81.92 81.92 0 0 0 81.92-81.92zM184.32 629.76a61.44 61.44 0 1 1 61.44-61.44 61.44 61.44 0 0 1-61.44 61.44z m0-81.92a20.48 20.48 0 1 0 20.48 20.48 20.48 20.48 0 0 0-20.48-20.48zM839.68 261.12a61.44 61.44 0 1 1 61.44-61.44 61.44 61.44 0 0 1-61.44 61.44z m0-81.92a20.48 20.48 0 1 0 20.48 20.48 20.48 20.48 0 0 0-20.48-20.48zM204.8 281.6a81.92 81.92 0 0 1-79.0528-102.4h43.8272A40.96 40.96 0 0 0 163.84 199.68a40.96 40.96 0 0 0 40.96 40.96h81.92v40.96zM860.16 568.32a40.96 40.96 0 0 0-5.7344-20.48h43.8272A81.92 81.92 0 0 1 819.2 650.24v-40.96a40.96 40.96 0 0 0 40.96-40.96zM737.28 650.24h40.96v-40.96h-40.96z"  horiz-adv-x="1024" />

    
    <glyph glyph-name="shenhe1" unicode="&#58881;" d="M603.2 740.4a31.8 31.7 0 1 1 63.6 0 31.8 31.7 0 1 1-63.6 0ZM833.1 256.1h-1.6S704.2 257.4 643 365.9c-37.1 75.6-4.5 128.2 9.3 145.6 1.8 2 3.6 4 5.3 6.1l0.2 0.2c22.8 27.2 38.2 60.9 42.9 97.9 0.3 1.7 0.4 3.4 0.4 5.2 0 17.4-14.2 31.5-31.7 31.5-16.8 0-30.6-13.1-31.6-29.5-3.9-28.9-17.5-54.7-37.4-74-0.5-0.4-1.3-1.5-1.3-1.5-1.7-2.4-11.5-16.2-18.6-29.5-35.5-72.8-16-164.8 37-227.9 32.9-34.8 79.5-77.4 186.2-97.8v-0.1c16.6-1.2 29.7-15.1 29.7-31.9v-30.9c0-0.5-0.4-1-1-1H193.2c-0.5 0-1 0.4-1 1v30.9c0 16.1 12 29.5 27.6 31.7l-0.1 0.2c107.1 20.4 153.8 63 186.8 97.9 53 63.1 72.5 155.1 37 227.9-4.9 11.2-9.6 18.6-18.8 29.8l-0.3 0.3c0.1-0.1 0.2-0.2 0.4-0.3 0 0-6.5 6.7-2 1.9-23.4 23-37.9 55.1-37.9 90.6 0 70.2 56.9 127.1 127.1 127.1 3 0 6-0.1 8.9-0.3 1.2-0.1 2.4-0.2 3.6-0.2 17.6 0 31.8 14.2 31.8 31.7s-14.2 31.7-31.8 31.7c-4.1 0.3-8.3 0.4-12.5 0.4-105.1 0-190.3-85.2-190.3-190.3 0-50.2 19.4-95.8 51.2-129.8 14.3-18.6 44.5-70.5 8.3-144.3C320 257.5 192.7 256.1 192.7 256.1c-35.2 0-64-28.8-64-64v-126.8c0-0.5 0.5-1 1-1H257c-0.6 0-1-0.5-1-1v-62.8c0-35.2 28.8-64 64-64h384.1c35.2 0 64 28.8 64 64v62.8c0 0.5-0.4 1-1 1h129c0.5 0 1 0.5 1 1V192.1c0 35.2-28.8 64-64 64z m-128-223.7c0-17.6-14.4-32-32-32H351c-17.6 0-32 14.4-32 32v31.9h386.1v-31.9z"  horiz-adv-x="1024" />

    
    <glyph glyph-name="ceshi" unicode="&#58885;" d="M967.111 782.222v-682.666H56.89V782.222H967.11z m-853.333-56.889v-568.889h796.444v568.89H113.778zM170.667 42.667h682.666v-56.89H170.667zM665.6 247.467l-39.822 45.51 147.91 147.912L625.779 588.8l39.822 45.511L853.333 440.89z m-307.2 0l39.822 45.51-147.91 147.912L398.221 588.8 358.4 634.311 170.667 440.89z m182.5 426.666l55.182-13.824-112.925-452.665-55.182 13.768z"  horiz-adv-x="1024" />

    
    <glyph glyph-name="shujutongji2" unicode="&#58941;" d="M902.4 89.6c-6.4 0-6.4 0-12.8 6.4-12.8 6.4-12.8 19.2-6.4 32 25.6 38.4 44.8 76.8 57.6 121.6 25.6 96 19.2 192-6.4 281.6l-409.6-192c-12.8 0-25.6 0-32 12.8-6.4 12.8 0 25.6 12.8 32l448 211.2 6.4-25.6c44.8-102.4 51.2-217.6 19.2-332.8-12.8-44.8-32-96-64-134.4 0-6.4-6.4-12.8-12.8-12.8zM966.4 691.2c-44.8 83.2-128 153.6-224 185.6L633.6 531.2l332.8 160zM512-115.2c-44.8 0-96 6.4-140.8 19.2-128 38.4-230.4 121.6-288 236.8C19.2 256 6.4 390.4 44.8 512 115.2 768 377.6 915.2 627.2 851.2l25.6-6.4L512 377.6l281.6-403.2-19.2-12.8c-83.2-51.2-172.8-76.8-262.4-76.8zM512 819.2c-192 0-364.8-121.6-422.4-313.6-70.4-230.4 64-480 294.4-550.4 115.2-32 236.8-19.2 339.2 38.4L460.8 371.2l134.4 441.6c-32 6.4-57.6 6.4-83.2 6.4z"  horiz-adv-x="1024" />

    
    <glyph glyph-name="shenhe2" unicode="&#59015;" d="M946.2 12.3l-142 142.1c-7.3 7.3-16.9 11.3-27.2 11.3s-20-4-27.2-11.3l-4.5-4.5c-15-15-15-39.4 0-54.5l146.5-146.5c7.5-7.5 17.4-11.3 27.2-11.3 9.9 0 19.7 3.8 27.2 11.3 17.5 17.5 17.5 45.9 0 63.4zM816.6 255.2C833.4 295.1 842 337.4 842 381c0 43.6-8.6 85.9-25.4 125.8-16.2 38.5-39.6 73-69.3 102.7-29.6 29.7-64.3 53-102.7 69.3-39.9 16.8-82.2 25.4-125.8 25.4-43.6 0-85.9-8.6-125.8-25.4-38.5-16.3-73-39.6-102.7-69.3-29.7-29.6-53-64.3-69.3-102.7-16.8-39.9-25.4-82.2-25.4-125.8 0-43.6 8.6-85.9 25.4-125.8 16.3-38.5 39.6-73 69.3-102.7 29.6-29.7 64.3-53 102.7-69.3 39.9-16.8 82.2-25.4 125.8-25.4 43.6 0 85.9 8.6 125.8 25.4 38.5 16.2 73 39.6 102.7 69.3 29.8 29.6 53.1 64.2 69.3 102.7zM518.9 95.4c-157.5 0-285.6 128.1-285.6 285.6 0 157.5 128.1 285.6 285.6 285.6 157.5 0 285.6-128.1 285.6-285.6-0.1-157.5-128.2-285.6-285.6-285.6z m0 0M334.7 525.1l-3 2.3c-7.7 5.9-18.9 4.1-24.3-4-0.2-0.2-0.4-0.6-0.6-0.9-5.4-8.1-2.7-19 5.7-23.8l3.4-1.9c7.7-4.4 17.6-2.1 22.5 5.3 0.1 0.1 0.1 0.2 0.2 0.2 4.9 7.5 3.2 17.4-3.9 22.8zM300 468.9c-10 4.2-21.6-0.8-25.1-11.1-10.1-29.5-15.2-60.3-15.2-92v-0.5c0-10.9 9.3-19.4 20.1-18.6 9.9 0.7 17.5 9 17.5 18.9v0.2c0 27.4 4.4 54.1 13.1 79.5 3.2 9.5-1.3 19.7-10.4 23.6z m0 0M254.2 22.5H178c-62 0-112.2 50.2-112.2 112.2V718.3c0 62 50.2 112.2 112.2 112.2h583.6c62 0 112.2-50.2 112.2-112.2v-80.6c0-10.9-8.8-19.7-19.7-19.7-10.9 0-19.7 8.8-19.7 19.7v80.6c0 40.2-32.6 72.7-72.7 72.7H178c-40.2 0-72.7-32.6-72.7-72.7v-583.6c0-40.2 32.6-72.7 72.7-72.7h76.1c10.9 0 19.7-8.8 19.7-19.7 0.1-10.9-8.7-19.8-19.6-19.8z"  horiz-adv-x="1024" />

    
    <glyph glyph-name="shenhe3" unicode="&#58884;" d="M479.9-21.7H138.3c-37.3 0-67.7 30.4-67.7 67.7V764.6c0 37.3 30.4 67.7 67.7 67.7h692c37.3 0 67.7-30.4 67.7-67.7v-359.3c0-8-6.5-14.5-14.5-14.5s-14.5 6.5-14.5 14.5V764.6c0 21.4-17.4 38.7-38.7 38.7h-692c-21.4 0-38.7-17.4-38.7-38.7V46c0-21.4 17.4-38.7 38.7-38.7h341.6c8 0 14.5-6.5 14.5-14.5s-6.5-14.5-14.5-14.5zM704.6 466.6H187.4c-8 0-14.5 6.5-14.5 14.5s6.5 14.5 14.5 14.5h517.2c8 0 14.5-6.5 14.5-14.5 0-8.1-6.5-14.5-14.5-14.5zM497.6 327.8H187.4c-8 0-14.5 6.5-14.5 14.5s6.5 14.5 14.5 14.5h310.2c8 0 14.5-6.5 14.5-14.5s-6.5-14.5-14.5-14.5zM406 189.1H187.4c-8 0-14.5 6.5-14.5 14.5s6.5 14.5 14.5 14.5H406c8 0 14.5-6.5 14.5-14.5s-6.5-14.5-14.5-14.5zM767.6 621.2H180.8c-8 0-14.5 6.5-14.5 14.5s6.5 14.5 14.5 14.5h586.8c8 0 14.5-6.5 14.5-14.5s-6.5-14.5-14.5-14.5zM903.6-62.7c-13 0-26.1 5-36 14.9L805.8 14c-5.7 5.7-5.7 14.8 0 20.5 5.7 5.7 14.8 5.7 20.5 0l61.8-61.8c8.5-8.5 22.4-8.5 31 0 8.5 8.5 8.5 22.4 0 31l-60.5 60.5c-5.7 5.7-5.7 14.8 0 20.5 5.7 5.7 14.8 5.7 20.5 0l60.5-60.5c19.8-19.8 19.8-52.1 0-72-10-9.9-23-14.9-36-14.9zM721.1-9.8c-105.3 0-191.1 85.7-191.1 191.1s85.7 191 191.1 191 191.1-85.7 191.1-191-85.8-191.1-191.1-191.1z m0 353.1c-89.4 0-162.1-72.7-162.1-162s72.7-162.1 162.1-162.1 162.1 72.7 162.1 162.1-72.8 162-162.1 162z"  horiz-adv-x="1024" />

    
    <glyph glyph-name="check-circle" unicode="&#59261;" d="M699 543h-46.9c-10.2 0-19.9-4.9-25.9-13.3L469 311.70000000000005l-71.2 98.8c-6 8.3-15.6 13.3-25.9 13.3H325c-6.5 0-10.3-7.4-6.5-12.7l124.6-172.8c12.7-17.7 39-17.7 51.7 0l210.6 292c3.9 5.3 0.1 12.7-6.4 12.7zM512 832C264.6 832 64 631.4 64 384s200.6-448 448-448 448 200.6 448 448S759.4 832 512 832z m0-820c-205.4 0-372 166.6-372 372s166.6 372 372 372 372-166.6 372-372-166.6-372-372-372z"  horiz-adv-x="1024" />

    
    <glyph glyph-name="CI" unicode="&#59262;" d="M512 832C264.6 832 64 631.4 64 384s200.6-448 448-448 448 200.6 448 448S759.4 832 512 832z m0-820c-205.4 0-372 166.6-372 372s166.6 372 372 372 372-166.6 372-372-166.6-372-372-372zM730 584.1h-50.4c-4.4 0-8-3.6-8-8v-384.2c0-4.4 3.6-8 8-8H730c4.4 0 8 3.6 8 8V576.1c0 4.4-3.6 8-8 8zM448.6 534.5c49.5 0 83.1-31.5 87-77.6 0.4-4.2 3.8-7.4 8-7.4h52.6c2.4 0 4.4 2 4.4 4.4 0 81.2-64 138.1-152.3 138.1C345.4 592 286 522.5 286 407.6v-49c0-114 59.4-182.6 162.3-182.6 88 0 152.3 55.1 152.3 132.5 0 2.4-2 4.4-4.4 4.4h-52.7c-4.2 0-7.6-3.2-8-7.3-4.2-43-37.7-72.4-87-72.4-61.1 0-95.6 44.9-95.6 125.2v49.3c0.1 81.4 34.6 126.8 95.7 126.8z"  horiz-adv-x="1024" />

    
    <glyph glyph-name="Dollar" unicode="&#59263;" d="M512 832C264.6 832 64 631.4 64 384s200.6-448 448-448 448 200.6 448 448S759.4 832 512 832z m0-820c-205.4 0-372 166.6-372 372s166.6 372 372 372 372-166.6 372-372-166.6-372-372-372zM559.7 407.2l-25.4 5.9V547.4c38-5.2 61.5-29 65.5-58.2 0.5-4 3.9-6.9 7.9-6.9h44.9c4.7 0 8.4 4.1 8 8.8-6.1 62.3-57.4 102.3-125.9 109.2V633c0 4.4-3.6 8-8 8h-28.1c-4.4 0-8-3.6-8-8v-33c-70.8-6.9-126.2-46-126.2-119 0-67.6 49.8-100.2 102.1-112.7l24.7-6.3v-142.7c-44.2 5.9-69 29.5-74.1 61.3-0.6 3.8-4 6.6-7.9 6.6H363c-4.7 0-8.4-4-8-8.7 4.5-55 46.2-105.6 135.2-112.1V135c0-4.4 3.6-8 8-8h28.4c4.4 0 8 3.6 8 8.1l-0.2 31.7c78.3 6.9 134.3 48.8 134.3 124-0.1 69.4-44.2 100.4-109 116.4z m-68.6 16.2c-5.6 1.6-10.3 3.1-15 5-33.8 12.2-49.5 31.9-49.5 57.3 0 36.3 27.5 57 64.5 61.7v-124zM534.3 219V352.7c3.1-0.9 5.9-1.6 8.8-2.2 47.3-14.4 63.2-34.4 63.2-65.1 0-39.1-29.4-62.6-72-66.4z"  horiz-adv-x="1024" />

    
    <glyph glyph-name="compass" unicode="&#59264;" d="M512 832C264.6 832 64 631.4 64 384s200.6-448 448-448 448 200.6 448 448S759.4 832 512 832z m0-820c-205.4 0-372 166.6-372 372s166.6 372 372 372 372-166.6 372-372-166.6-372-372-372zM710.4 600.1c-8 3.1-16.7 2.9-24.5-0.5L414.9 481 296.4 210c-3.6-8.2-3.6-17.5 0-25.7 3.4-7.8 9.7-13.9 17.7-17 3.8-1.5 7.7-2.2 11.7-2.2 4.4 0 8.7 0.9 12.8 2.7l271 118.6 118.5 271c3.6 8.2 3.6 17.5 0 25.7-3.5 7.9-9.8 13.9-17.7 17zM576.8 361.6l26.2-26.2-42.4-42.4-26.2 26.2L380 251.6 447.5 406 422 431.6l42.4 42.4 25.5-25.5L644.4 516l-67.6-154.4zM464.4 474L422 431.6l25.5-25.6 86.9-86.8 26.2-26.2 42.4 42.4-26.2 26.2-86.8 86.9z"  horiz-adv-x="1024" />

    
    <glyph glyph-name="close-circle" unicode="&#59265;" d="M685.4 541.2c0 4.4-3.6 8-8 8l-66-0.3L512 430.4l-99.3 118.4-66.1 0.3c-4.4 0-8-3.5-8-8 0-1.9 0.7-3.7 1.9-5.2l130.1-155L340.5 226c-1.2-1.5-1.9-3.3-1.9-5.2 0-4.4 3.6-8 8-8l66.1 0.3L512 331.6l99.3-118.4 66-0.3c4.4 0 8 3.5 8 8 0 1.9-0.7 3.7-1.9 5.2L553.5 381l130.1 155c1.2 1.4 1.8 3.3 1.8 5.2zM512 831C264.6 831 64 630.4 64 383s200.6-448 448-448 448 200.6 448 448S759.4 831 512 831z m0-820c-205.4 0-372 166.6-372 372s166.6 372 372 372 372-166.6 372-372-166.6-372-372-372z"  horiz-adv-x="1024" />

    
    <glyph glyph-name="frown" unicode="&#59266;" d="M336 475m-48 0a48 48 0 1 1 96 0 48 48 0 1 1-96 0ZM688 475m-48 0a48 48 0 1 1 96 0 48 48 0 1 1-96 0ZM512 832C264.6 832 64 631.4 64 384s200.6-448 448-448 448 200.6 448 448S759.4 832 512 832z m263-711c-34.2-34.2-74-61-118.3-79.8C611 21.8 562.3 12 512 12c-50.3 0-99 9.8-144.8 29.2-44.3 18.7-84.1 45.6-118.3 79.8-34.2 34.2-61 74-79.8 118.3C149.8 285 140 333.7 140 384s9.8 99 29.2 144.8c18.7 44.3 45.6 84.1 79.8 118.3 34.2 34.2 74 61 118.3 79.8C413 746.2 461.7 756 512 756c50.3 0 99-9.8 144.8-29.2 44.3-18.7 84.1-45.6 118.3-79.8 34.2-34.2 61-74 79.8-118.3C874.2 483 884 434.3 884 384s-9.8-99-29.2-144.8c-18.7-44.3-45.6-84.1-79.8-118.2zM512 363c-85.5 0-155.6-67.3-160-151.6-0.2-4.6 3.4-8.4 8-8.4h48.1c4.2 0 7.8 3.2 8.1 7.4C420 259.9 461.5 299 512 299s92.1-39.1 95.8-88.6c0.3-4.2 3.9-7.4 8.1-7.4H664c4.6 0 8.2 3.8 8 8.4-4.4 84.3-74.5 151.6-160 151.6z"  horiz-adv-x="1024" />

    
    <glyph glyph-name="info-circle" unicode="&#59267;" d="M512 832C264.6 832 64 631.4 64 384s200.6-448 448-448 448 200.6 448 448S759.4 832 512 832z m0-820c-205.4 0-372 166.6-372 372s166.6 372 372 372 372-166.6 372-372-166.6-372-372-372zM512 560m-48 0a48 48 0 1 1 96 0 48 48 0 1 1-96 0ZM536 448h-48c-4.4 0-8-3.6-8-8v-272c0-4.4 3.6-8 8-8h48c4.4 0 8 3.6 8 8V440c0 4.4-3.6 8-8 8z"  horiz-adv-x="1024" />

    
    <glyph glyph-name="left-circle" unicode="&#59268;" d="M603.3 568.5l-246-178c-4.4-3.2-4.4-9.7 0-12.9l246-178c5.3-3.8 12.7 0 12.7 6.5V253c0 10.2-4.9 19.9-13.2 25.9L457.4 384l145.4 105.2c8.3 6 13.2 15.6 13.2 25.9V562c0 6.5-7.4 10.3-12.7 6.5zM512 832C264.6 832 64 631.4 64 384s200.6-448 448-448 448 200.6 448 448S759.4 832 512 832z m0-820c-205.4 0-372 166.6-372 372s166.6 372 372 372 372-166.6 372-372-166.6-372-372-372z"  horiz-adv-x="1024" />

    
    <glyph glyph-name="down-circle" unicode="&#59269;" d="M690 491h-46.9c-10.2 0-19.9-4.9-25.9-13.2L512 332.4 406.8 477.8c-6 8.3-15.6 13.2-25.9 13.2H334c-6.5 0-10.3-7.4-6.5-12.7l178-246c3.2-4.4 9.7-4.4 12.9 0l178 246c3.9 5.3 0.1 12.7-6.4 12.7zM512 832C264.6 832 64 631.4 64 384s200.6-448 448-448 448 200.6 448 448S759.4 832 512 832z m0-820c-205.4 0-372 166.6-372 372s166.6 372 372 372 372-166.6 372-372-166.6-372-372-372z"  horiz-adv-x="1024" />

    
    <glyph glyph-name="EURO" unicode="&#59270;" d="M512 832C264.6 832 64 631.4 64 384s200.6-448 448-448 448 200.6 448 448S759.4 832 512 832z m0-820c-205.4 0-372 166.6-372 372s166.6 372 372 372 372-166.6 372-372-166.6-372-372-372zM629.7 600.6c-15.9 3.5-34.4 5.4-55.3 5.4-106.7 0-178.9-55.7-198.6-149.9H344c-4.4 0-8-3.6-8-8v-27.2c0-4.4 3.6-8 8-8h26.4c-0.3-4.1-0.3-8.4-0.3-12.8v-36.9H344c-4.4 0-8-3.6-8-8V328c0-4.4 3.6-8 8-8h30.2c17.2-99.2 90.4-158 200.2-158 20.9 0 39.4 1.7 55.3 5.1 3.7 0.8 6.4 4 6.4 7.8v42.8c0 5-4.6 8.8-9.5 7.8-14.7-2.8-31.9-4.1-51.8-4.1-68.5 0-114.5 36.6-129.8 98.6h130.6c4.4 0 8 3.6 8 8v27.2c0 4.4-3.6 8-8 8H439.2v36c0 4.7 0 9.4 0.3 13.8h135.9c4.4 0 8 3.6 8 8v27.2c0 4.4-3.6 8-8 8H447.1c17.2 56.9 62.3 90.4 127.6 90.4 19.9 0 37.1-1.5 51.7-4.4 5-1 9.6 2.8 9.6 7.8v42.8c0 3.8-2.6 7-6.3 7.8z"  horiz-adv-x="1024" />

    
    <glyph glyph-name="copyright" unicode="&#59271;" d="M512 832C264.6 832 64 631.4 64 384s200.6-448 448-448 448 200.6 448 448S759.4 832 512 832z m0-820c-205.4 0-372 166.6-372 372s166.6 372 372 372 372-166.6 372-372-166.6-372-372-372zM517.6 544.7c53 0 89-33.8 93-83.4 0.3-4.2 3.8-7.4 8-7.4h56.7c2.6 0 4.7 2.1 4.7 4.7 0 86.7-68.4 147.4-162.7 147.4C407.4 606 344 531.8 344 409.2v-52.3C344 235.2 407.4 162 517.3 162c94 0 162.7 58.8 162.7 141.4 0 2.6-2.1 4.7-4.7 4.7h-56.8c-4.2 0-7.6-3.2-8-7.3-4.2-46.1-40.1-77.8-93-77.8-65.3 0-102.1 47.9-102.1 133.6v52.6c0.1 87 37 135.5 102.2 135.5z"  horiz-adv-x="1024" />

    
    <glyph glyph-name="minus-circle" unicode="&#59272;" d="M696 416H328c-4.4 0-8-3.6-8-8v-48c0-4.4 3.6-8 8-8h368c4.4 0 8 3.6 8 8v48c0 4.4-3.6 8-8 8zM512 832C264.6 832 64 631.4 64 384s200.6-448 448-448 448 200.6 448 448S759.4 832 512 832z m0-820c-205.4 0-372 166.6-372 372s166.6 372 372 372 372-166.6 372-372-166.6-372-372-372z"  horiz-adv-x="1024" />

    
    <glyph glyph-name="meh" unicode="&#59273;" d="M336 475m-48 0a48 48 0 1 1 96 0 48 48 0 1 1-96 0ZM688 475m-48 0a48 48 0 1 1 96 0 48 48 0 1 1-96 0ZM512 832C264.6 832 64 631.4 64 384s200.6-448 448-448 448 200.6 448 448S759.4 832 512 832z m263-711c-34.2-34.2-74-61-118.3-79.8C611 21.8 562.3 12 512 12c-50.3 0-99 9.8-144.8 29.2-44.3 18.7-84.1 45.6-118.3 79.8-34.2 34.2-61 74-79.8 118.3C149.8 285 140 333.7 140 384s9.8 99 29.2 144.8c18.7 44.3 45.6 84.1 79.8 118.3 34.2 34.2 74 61 118.3 79.8C413 746.2 461.7 756 512 756c50.3 0 99-9.8 144.8-29.2 44.3-18.7 84.1-45.6 118.3-79.8 34.2-34.2 61-74 79.8-118.3C874.2 483 884 434.3 884 384s-9.8-99-29.2-144.8c-18.7-44.3-45.6-84.1-79.8-118.2zM664 331H360c-4.4 0-8-3.6-8-8v-48c0-4.4 3.6-8 8-8h304c4.4 0 8 3.6 8 8v48c0 4.4-3.6 8-8 8z"  horiz-adv-x="1024" />

    
    <glyph glyph-name="plus-circle" unicode="&#59274;" d="M696 416H544V568c0 4.4-3.6 8-8 8h-48c-4.4 0-8-3.6-8-8v-152H328c-4.4 0-8-3.6-8-8v-48c0-4.4 3.6-8 8-8h152v-152c0-4.4 3.6-8 8-8h48c4.4 0 8 3.6 8 8V352h152c4.4 0 8 3.6 8 8v48c0 4.4-3.6 8-8 8zM512 832C264.6 832 64 631.4 64 384s200.6-448 448-448 448 200.6 448 448S759.4 832 512 832z m0-820c-205.4 0-372 166.6-372 372s166.6 372 372 372 372-166.6 372-372-166.6-372-372-372z"  horiz-adv-x="1024" />

    
    <glyph glyph-name="play-circle" unicode="&#59275;" d="M512 832C264.6 832 64 631.4 64 384s200.6-448 448-448 448 200.6 448 448S759.4 832 512 832z m0-820c-205.4 0-372 166.6-372 372s166.6 372 372 372 372-166.6 372-372-166.6-372-372-372zM719.4 396.9l-296.1 215c-10.6 7.7-25.3 0.2-25.3-12.9v-430c0-13.1 14.8-20.5 25.3-12.9l296.1 215c8.8 6.4 8.8 19.4 0 25.8z m-257.6-134V505.1L628.5 384 461.8 262.9z"  horiz-adv-x="1024" />

    
    <glyph glyph-name="question-circle" unicode="&#59276;" d="M512 832C264.6 832 64 631.4 64 384s200.6-448 448-448 448 200.6 448 448S759.4 832 512 832z m0-820c-205.4 0-372 166.6-372 372s166.6 372 372 372 372-166.6 372-372-166.6-372-372-372zM623.6 579.3C593.6 605.6 554 620 512 620s-81.6-14.5-111.6-40.7C369.2 552 352 515.3 352 476v-7.6c0-4.4 3.6-8 8-8h48c4.4 0 8 3.6 8 8V476c0 44.1 43.1 80 96 80s96-35.9 96-80c0-31.1-22-59.6-56.1-72.7-21.2-8.1-39.2-22.3-52.1-40.9-13.1-19-19.9-41.8-19.9-64.9V276c0-4.4 3.6-8 8-8h48c4.4 0 8 3.6 8 8v22.7c0 19.7 12.4 37.7 30.9 44.8 59 22.7 97.1 74.7 97.1 132.5 0.1 39.3-17.1 76-48.3 103.3zM512 164m-40 0a40 40 0 1 1 80 0 40 40 0 1 1-80 0Z"  horiz-adv-x="1024" />

    
    <glyph glyph-name="Pound" unicode="&#59277;" d="M512 832C264.6 832 64 631.4 64 384s200.6-448 448-448 448 200.6 448 448S759.4 832 512 832z m0-820c-205.4 0-372 166.6-372 372s166.6 372 372 372 372-166.6 372-372-166.6-372-372-372zM650 221.8H469.8v4.7c27.4 17.2 43.9 50.4 43.9 91.1 0 14.1-2.2 27.9-5.3 41H607c4.4 0 8 3.6 8 8v30c0 4.4-3.6 8-8 8H495c-7.2 22.6-13.4 45.7-13.4 70.5 0 43.5 34 70.2 87.3 70.2 21.5 0 42.5-4.1 60.4-10.5 5.2-1.9 10.6 2 10.6 7.6v39.5c0 3.3-2.1 6.3-5.2 7.5-18.8 7.2-43.8 12.7-70.3 12.7-92.9 0-151.5-44.5-151.5-120.3 0-26.3 6.9-52 14.6-77.1H374c-4.4 0-8-3.6-8-8v-30c0-4.4 3.6-8 8-8h67.1c3.4-14.7 5.9-29.4 5.9-44.2 0-45.2-28.8-83.3-72.8-94.2-3.6-0.9-6.1-4.1-6.1-7.8V174c0-4.4 3.6-8 8-8H650c4.4 0 8 3.6 8 8v39.8c0 4.4-3.6 8-8 8z"  horiz-adv-x="1024" />

    
    <glyph glyph-name="right-circle" unicode="&#59278;" d="M666.7 390.5l-246 178c-5.3 3.8-12.7 0.1-12.7-6.5v-46.9c0-10.2 4.9-19.9 13.2-25.9L566.6 384 421.2 278.79999999999995c-8.3-6-13.2-15.6-13.2-25.9V206c0-6.5 7.4-10.3 12.7-6.5l246 178c4.4 3.2 4.4 9.8 0 13zM512 832C264.6 832 64 631.4 64 384s200.6-448 448-448 448 200.6 448 448S759.4 832 512 832z m0-820c-205.4 0-372 166.6-372 372s166.6 372 372 372 372-166.6 372-372-166.6-372-372-372z"  horiz-adv-x="1024" />

    
    <glyph glyph-name="smile" unicode="&#59279;" d="M336 475m-48 0a48 48 0 1 1 96 0 48 48 0 1 1-96 0ZM688 475m-48 0a48 48 0 1 1 96 0 48 48 0 1 1-96 0ZM512 832C264.6 832 64 631.4 64 384s200.6-448 448-448 448 200.6 448 448S759.4 832 512 832z m263-711c-34.2-34.2-74-61-118.3-79.8C611 21.8 562.3 12 512 12c-50.3 0-99 9.8-144.8 29.2-44.3 18.7-84.1 45.6-118.3 79.8-34.2 34.2-61 74-79.8 118.3C149.8 285 140 333.7 140 384s9.8 99 29.2 144.8c18.7 44.3 45.6 84.1 79.8 118.3 34.2 34.2 74 61 118.3 79.8C413 746.2 461.7 756 512 756c50.3 0 99-9.8 144.8-29.2 44.3-18.7 84.1-45.6 118.3-79.8 34.2-34.2 61-74 79.8-118.3C874.2 483 884 434.3 884 384s-9.8-99-29.2-144.8c-18.7-44.3-45.6-84.1-79.8-118.2zM664 363h-48.1c-4.2 0-7.8-3.2-8.1-7.4C604 306.1 562.5 267 512 267s-92.1 39.1-95.8 88.6c-0.3 4.2-3.9 7.4-8.1 7.4H360c-4.6 0-8.2-3.8-8-8.4 4.4-84.3 74.5-151.6 160-151.6s155.6 67.3 160 151.6c0.2 4.6-3.4 8.4-8 8.4z"  horiz-adv-x="1024" />

    
    <glyph glyph-name="trademark" unicode="&#59280;" d="M512 832C264.6 832 64 631.4 64 384s200.6-448 448-448 448 200.6 448 448S759.4 832 512 832z m0-820c-205.4 0-372 166.6-372 372s166.6 372 372 372 372-166.6 372-372-166.6-372-372-372zM599.5 346.7c34.8 12.8 78.4 49 78.4 119.2 0 71.2-45.5 131.1-144.2 131.1H378c-4.4 0-8-3.6-8-8v-410c0-4.4 3.6-8 8-8h54.5c4.4 0 8 3.6 8 8V334.8h88.7l74.6-159.2c1.3-2.8 4.1-4.6 7.2-4.6h62c1.2 0 2.4 0.3 3.5 0.8 4 2 5.6 6.7 3.6 10.7l-80.6 164.2zM522 391h-81.5V539h83.4c48 0 80.9-25.3 80.9-75.5 0-46.9-29.8-72.5-82.8-72.5z"  horiz-adv-x="1024" />

    
    <glyph glyph-name="time-circle" unicode="&#59281;" d="M512 832C264.6 832 64 631.4 64 384s200.6-448 448-448 448 200.6 448 448S759.4 832 512 832z m0-820c-205.4 0-372 166.6-372 372s166.6 372 372 372 372-166.6 372-372-166.6-372-372-372zM686.7 257.4L544.1 360.5V608c0 4.4-3.6 8-8 8H488c-4.4 0-8-3.6-8-8v-275.4c0-2.6 1.2-5 3.3-6.5l165.4-120.6c3.6-2.6 8.6-1.8 11.2 1.7l28.6 39c2.6 3.7 1.8 8.7-1.8 11.2z"  horiz-adv-x="1024" />

    
    <glyph glyph-name="timeout" unicode="&#59282;" d="M512 832C264.6 832 64 631.4 64 384s200.6-448 448-448 448 200.6 448 448S759.4 832 512 832z m0-820c-205.4 0-372 166.6-372 372s166.6 372 372 372 372-166.6 372-372-166.6-372-372-372zM424 544h-48c-4.4 0-8-3.6-8-8v-304c0-4.4 3.6-8 8-8h48c4.4 0 8 3.6 8 8V536c0 4.4-3.6 8-8 8zM648 544h-48c-4.4 0-8-3.6-8-8v-304c0-4.4 3.6-8 8-8h48c4.4 0 8 3.6 8 8V536c0 4.4-3.6 8-8 8z"  horiz-adv-x="1024" />

    
    <glyph glyph-name="earth" unicode="&#59283;" d="M854.4 95.1c0.2 0.3 0.5 0.6 0.7 0.9C920.6 173.9 960 274.3 960 384s-39.4 210.1-104.8 288c-0.2 0.3-0.5 0.5-0.7 0.8-1.1 1.3-2.1 2.5-3.2 3.7-0.4 0.5-0.8 0.9-1.2 1.4-1.4 1.6-2.7 3.1-4.1 4.7l-0.1 0.1c-1.5 1.7-3.1 3.4-4.6 5.1l-0.1 0.1c-3.2 3.4-6.4 6.8-9.7 10.1l-0.1 0.1-4.8 4.8-0.3 0.3c-1.5 1.5-3 2.9-4.5 4.3-0.5 0.5-1 1-1.6 1.5-1 1-2 1.9-3 2.8-0.3 0.3-0.7 0.6-1 1C736.4 786.8 629.5 832 512 832s-224.4-45.2-304.3-119.2c-0.3-0.3-0.7-0.6-1-1-1-0.9-2-1.9-3-2.9-0.5-0.5-1-1-1.6-1.5-1.5-1.4-3-2.9-4.5-4.3l-0.3-0.3-4.8-4.8-0.1-0.1c-3.3-3.3-6.5-6.7-9.7-10.1l-0.1-0.1c-1.6-1.7-3.1-3.4-4.6-5.1l-0.1-0.1c-1.4-1.5-2.8-3.1-4.1-4.7-0.4-0.5-0.8-0.9-1.2-1.4-1.1-1.2-2.1-2.5-3.2-3.7-0.2-0.3-0.5-0.5-0.7-0.8C103.4 594.1 64 493.7 64 384s39.4-210.1 104.8-288c0.2-0.3 0.5-0.6 0.7-0.9 1-1.2 2.1-2.5 3.1-3.7 0.4-0.5 0.8-0.9 1.2-1.4 1.4-1.6 2.7-3.1 4.1-4.7 0-0.1 0.1-0.1 0.1-0.2 1.5-1.7 3-3.4 4.6-5l0.1-0.1c3.2-3.4 6.4-6.8 9.6-10.1l0.1-0.1c1.6-1.6 3.1-3.2 4.7-4.7l0.3-0.3c3.3-3.3 6.7-6.5 10.1-9.6 80.1-74 187-119.2 304.5-119.2s224.4 45.2 304.3 119.2c3.4 3.1 6.7 6.3 10 9.6l0.3 0.3c1.6 1.6 3.2 3.1 4.7 4.7l0.1 0.1c3.3 3.3 6.5 6.7 9.6 10.1l0.1 0.1c1.5 1.7 3.1 3.3 4.6 5 0 0.1 0.1 0.1 0.1 0.2 1.4 1.5 2.8 3.1 4.1 4.7 0.4 0.5 0.8 0.9 1.2 1.4 1.2 1.3 2.3 2.5 3.3 3.7z m4.1 142.6c-13.8-32.6-32-62.8-54.2-90.2-24.9 21.5-52.2 40.3-81.5 55.9 11.6 46.9 18.8 98.4 20.7 152.6H887c-3-40.9-12.6-80.6-28.5-118.3zM887 412H743.5c-1.9 54.2-9.1 105.7-20.7 152.6 29.3 15.6 56.6 34.4 81.5 55.9 22.2-27.4 40.4-57.6 54.2-90.2C874.4 492.6 884 452.9 887 412zM658.3 730.5c39.7-16.8 75.8-40 107.6-69.2-18.5-15.8-38.4-29.7-59.4-41.8-15.7 45-35.8 84.1-59.2 115.4 3.7-1.4 7.4-2.9 11-4.4z m-90.6-700.6c-9.2-7.2-18.4-12.7-27.7-16.4V199c39.9-2.8 78.6-11.6 115.7-26.2-8.3-24.6-17.9-47.3-29-67.8-17.4-32.4-37.8-58.3-59-75.1z m59 633.1c11-20.6 20.7-43.3 29-67.8-37.1-14.6-75.8-23.4-115.7-26.2V754.4c9.2-3.7 18.5-9.1 27.7-16.4 21.2-16.7 41.6-42.6 59-75zM540 255.1V356h147.5c-1.6-44.2-7.1-87.1-16.3-127.8l-0.3-1.2c-41.1 15.6-85.1 25.3-130.9 28.1z m0 156.9V512.9c45.8 2.8 89.8 12.5 130.9 28.1l0.3-1.2c9.2-40.7 14.7-83.5 16.3-127.8H540z m-56-56v-100.9c-45.8-2.8-89.8-12.5-130.9-28.1l-0.3 1.2c-9.2 40.7-14.7 83.5-16.3 127.8H484z m-147.5 56c1.6 44.2 7.1 87.1 16.3 127.8l0.3 1.2c41.1-15.6 85-25.3 130.9-28.1V412H336.5zM484 199v-185.4c-9.2 3.7-18.5 9.1-27.7 16.4-21.2 16.7-41.7 42.7-59.1 75.1-11 20.6-20.7 43.3-29 67.8 37.2 14.6 75.9 23.3 115.8 26.1z m0 370c-39.9 2.8-78.6 11.6-115.7 26.2 8.3 24.6 17.9 47.3 29 67.8 17.4 32.4 37.8 58.4 59.1 75.1 9.2 7.2 18.4 12.7 27.7 16.4V569zM365.7 730.5c3.7 1.5 7.3 3 11 4.4-23.4-31.3-43.5-70.4-59.2-115.4-21 12-40.9 26-59.4 41.8 31.8 29.2 67.9 52.4 107.6 69.2zM165.5 530.3c13.8 32.6 32 62.8 54.2 90.2 24.9-21.5 52.2-40.3 81.5-55.9-11.6-46.9-18.8-98.4-20.7-152.6H137c3 40.9 12.6 80.6 28.5 118.3zM137 356h143.5c1.9-54.2 9.1-105.7 20.7-152.6-29.3-15.6-56.6-34.4-81.5-55.9-22.2 27.4-40.4 57.6-54.2 90.2C149.6 275.4 140 315.1 137 356z m228.7-318.5c-39.7 16.8-75.8 40-107.6 69.2 18.5 15.8 38.4 29.7 59.4 41.8 15.7-45 35.8-84.1 59.2-115.4-3.7 1.4-7.4 2.9-11 4.4z m292.6 0c-3.7-1.5-7.3-3-11-4.4 23.4 31.3 43.5 70.4 59.2 115.4 21-12 40.9-26 59.4-41.8-31.8-29.2-67.9-52.4-107.6-69.2z"  horiz-adv-x="1024" />

    
    <glyph glyph-name="YUAN" unicode="&#59284;" d="M512 832C264.6 832 64 631.4 64 384s200.6-448 448-448 448 200.6 448 448S759.4 832 512 832z m0-820c-205.4 0-372 166.6-372 372s166.6 372 372 372 372-166.6 372-372-166.6-372-372-372zM671.6 597h-59.5c-3 0-5.8-1.7-7.1-4.4l-90.6-180H511l-90.6 180c-1.4 2.7-4.1 4.4-7.1 4.4h-60.7c-1.3 0-2.6-0.3-3.8-1-3.9-2.1-5.3-7-3.2-10.9L457 380.3h-61.4c-4.4 0-8-3.6-8-8v-29.9c0-4.4 3.6-8 8-8h81.7V293h-81.7c-4.4 0-8-3.6-8-8v-29.9c0-4.4 3.6-8 8-8h81.7V179c0-4.4 3.6-8 8-8h54.3c4.4 0 8 3.6 8 8v68.1h82c4.4 0 8 3.6 8 8V285c0 4.4-3.6 8-8 8h-82v41.5h82c4.4 0 8 3.6 8 8v29.9c0 4.4-3.6 8-8 8h-62l111.1 204.8c0.6 1.2 1 2.5 1 3.8-0.1 4.4-3.7 8-8.1 8z"  horiz-adv-x="1024" />

    
    <glyph glyph-name="up-circle" unicode="&#59285;" d="M518.5 535.7c-3.2 4.4-9.7 4.4-12.9 0l-178-246c-3.8-5.3 0-12.7 6.5-12.7H381c10.2 0 19.9 4.9 25.9 13.2L512 435.6l105.2-145.4c6-8.3 15.6-13.2 25.9-13.2H690c6.5 0 10.3 7.4 6.5 12.7l-178 246zM512 832C264.6 832 64 631.4 64 384s200.6-448 448-448 448 200.6 448 448S759.4 832 512 832z m0-820c-205.4 0-372 166.6-372 372s166.6 372 372 372 372-166.6 372-372-166.6-372-372-372z"  horiz-adv-x="1024" />

    
    <glyph glyph-name="warning-circle" unicode="&#59286;" d="M512 832C264.6 832 64 631.4 64 384s200.6-448 448-448 448 200.6 448 448S759.4 832 512 832z m0-820c-205.4 0-372 166.6-372 372s166.6 372 372 372 372-166.6 372-372-166.6-372-372-372zM512 208m-48 0a48 48 0 1 1 96 0 48 48 0 1 1-96 0ZM488 320h48c4.4 0 8 3.6 8 8V600c0 4.4-3.6 8-8 8h-48c-4.4 0-8-3.6-8-8v-272c0-4.4 3.6-8 8-8z"  horiz-adv-x="1024" />

    
    <glyph glyph-name="sync" unicode="&#59287;" d="M168 391.8c1 43.7 10 86.1 26.9 126 17.3 41 42.1 77.7 73.7 109.4S337 683.7 378 701c42.4 17.9 87.4 27 133.9 27s91.5-9.1 133.8-27c40.9-17.3 77.7-42.1 109.3-73.8 9.9-9.9 19.2-20.4 27.8-31.4l-60.2-47c-5.3-4.1-3.5-12.5 3-14.1l175.7-43c5-1.2 9.9 2.6 9.9 7.7l0.8 180.9c0 6.7-7.7 10.5-12.9 6.3l-56.4-44.1C765.8 740.9 646.2 804 511.8 804 282.7 804 96.3 620.4 92 392.2c-0.1-4.5 3.5-8.2 8-8.2h60c4.4 0 7.9 3.5 8 7.8zM924 384h-60c-4.4 0-7.9-3.5-8-7.8-1-43.7-10-86.1-26.9-126-17.3-41-42.1-77.8-73.7-109.4S687 84.3 646 67c-42.4-17.9-87.4-27-133.9-27s-91.5 9.1-133.9 27c-40.9 17.3-77.7 42.1-109.3 73.8-9.9 9.9-19.2 20.4-27.8 31.4l60.2 47c5.3 4.1 3.5 12.5-3 14.1l-175.7 43c-5 1.2-9.9-2.6-9.9-7.7l-0.7-181c0-6.7 7.7-10.5 12.9-6.3l56.4 44.1C258.2 27.1 377.8-36 512.2-36c229.2 0 415.5 183.7 419.8 411.8 0.1 4.5-3.5 8.2-8 8.2z"  horiz-adv-x="1024" />

    
    <glyph glyph-name="transaction" unicode="&#59288;" d="M668.6 576c0 4.4-3.6 8-8 8h-54.5c-3 0-5.8-1.7-7.1-4.4l-84.7-168.8H511l-84.7 168.8c-1.4 2.7-4.1 4.4-7.1 4.4h-55.7c-1.3 0-2.6-0.3-3.8-1-3.9-2.1-5.3-7-3.2-10.8l103.9-191.6h-57c-4.4 0-8-3.6-8-8v-27.1c0-4.4 3.6-8 8-8h76v-39h-76c-4.4 0-8-3.6-8-8v-27.1c0-4.4 3.6-8 8-8h76V192c0-4.4 3.6-8 8-8h49.9c4.4 0 8 3.6 8 8v63.5h76.3c4.4 0 8 3.6 8 8v27.1c0 4.4-3.6 8-8 8h-76.3v39h76.3c4.4 0 8 3.6 8 8v27.1c0 4.4-3.6 8-8 8H564l103.7 191.6c0.5 1.1 0.9 2.4 0.9 3.7zM157.9 391.8c1 45.1 10.3 88.7 27.7 129.9 17.8 42.1 43.3 80 75.8 112.5s70.3 58.1 112.4 75.9c43.6 18.4 89.9 27.8 137.6 27.8 47.8 0 94.1-9.3 137.6-27.8 42.1-17.8 79.9-43.4 112.4-75.9 10-10 19.3-20.5 27.9-31.4l-50-39.1c-5.3-4.1-3.5-12.5 3-14.1l156.8-38.3c5-1.2 9.9 2.6 9.9 7.7l0.8 161.5c0 6.7-7.7 10.5-12.9 6.3l-47.8-37.4C770.7 749.7 648.6 814 511.5 814 277 814 86.3 625.9 82 392.2c-0.1-4.5 3.5-8.2 8-8.2h60c4.3 0 7.8 3.5 7.9 7.8zM934 384h-60c-4.3 0-7.9-3.5-8-7.8-1-45.1-10.3-88.7-27.7-129.9-17.8-42.1-43.3-80-75.8-112.5s-70.3-58.1-112.4-75.9c-43.6-18.4-89.9-27.8-137.6-27.8s-94.1 9.3-137.6 27.8c-42.1 17.8-79.9 43.4-112.4 75.9-10 10-19.3 20.5-27.9 31.4l49.9 39.1c5.3 4.1 3.5 12.5-3 14.1l-156.8 38.3c-5 1.2-9.9-2.6-9.9-7.7l-0.8-161.7c0-6.7 7.7-10.5 12.9-6.3l47.8 37.4C253.3 18.3 375.4-46 512.5-46 747-46 937.7 142.1 942 375.8c0.1 4.5-3.5 8.2-8 8.2z"  horiz-adv-x="1024" />

    
    <glyph glyph-name="undo" unicode="&#59289;" d="M511.4 772C290.5 771.7 112 593 112 372.1c0-128 60.2-242 153.8-315.2l-37.5-48c-4.1-5.3-0.3-13 6.3-12.9l167 0.8c5.2 0 9 4.9 7.7 9.9L369.8 169c-1.6 6.5-10 8.3-14.1 3L315 119.9c-10.2 8-20 16.7-29.3 26-29.4 29.4-52.5 63.6-68.6 101.7C200.4 287 192 328.9 192 372.1s8.4 85.1 25.1 124.5c16.1 38.1 39.2 72.3 68.6 101.7 29.4 29.4 63.6 52.5 101.7 68.6C426.9 683.6 468.8 692 512 692s85.1-8.4 124.5-25.1c38.1-16.1 72.3-39.2 101.7-68.6 29.4-29.4 52.5-63.6 68.6-101.7 16.7-39.4 25.1-81.3 25.1-124.5s-8.4-85.1-25.1-124.5c-16.1-38.1-39.2-72.3-68.6-101.7-7.5-7.5-15.3-14.5-23.4-21.2-3.4-2.8-3.9-7.7-1.2-11.1l39.4-50.5c2.8-3.5 7.9-4.1 11.4-1.3C854.5 135.2 912 246.9 912 372.1c0 221.1-179.4 400.2-400.6 399.9z"  horiz-adv-x="1024" />

    
    <glyph glyph-name="redo" unicode="&#59290;" d="M758.2 56.9C851.8 130.1 912 244.1 912 372.1 912 593 733.5 771.7 512.6 772 291.4 772.3 112 593.2 112 372.1c0-125.2 57.5-236.9 147.6-310.2 3.5-2.8 8.6-2.2 11.4 1.3l39.4 50.5c2.7 3.4 2.1 8.3-1.2 11.1-8.1 6.6-15.9 13.7-23.4 21.2-29.4 29.4-52.5 63.6-68.6 101.7C200.4 287 192 328.9 192 372.1s8.4 85.1 25.1 124.5c16.1 38.1 39.2 72.3 68.6 101.7 29.4 29.4 63.6 52.5 101.7 68.6C426.9 683.6 468.8 692 512 692s85.1-8.4 124.5-25.1c38.1-16.1 72.3-39.2 101.7-68.6 29.4-29.4 52.5-63.6 68.6-101.7 16.7-39.4 25.1-81.3 25.1-124.5s-8.4-85.1-25.1-124.5c-16.1-38.1-39.2-72.3-68.6-101.7-9.3-9.3-19.1-18-29.3-26L668.2 172c-4.1 5.3-12.5 3.5-14.1-3l-39.6-162.2c-1.2-5 2.6-9.9 7.7-9.9l167-0.8c6.7 0 10.5 7.7 6.3 12.9l-37.3 47.9z"  horiz-adv-x="1024" />

    
    <glyph glyph-name="reload" unicode="&#59291;" d="M909.1 686.7l-56.4-44.1C775.8 740.9 656.2 804 521.9 804 290 804 102.3 616.5 102 384.5 101.7 152.3 289.8-36 521.9-36c181.3 0 335.8 115 394.6 276.1 1.5 4.2-0.7 8.9-4.9 10.3l-56.7 19.5c-4.1 1.4-8.6-0.7-10.1-4.8-1.8-5-3.8-10-5.9-14.9-17.3-41-42.1-77.8-73.7-109.4-31.6-31.6-68.4-56.4-109.3-73.8-42.3-17.9-87.4-27-133.8-27-46.5 0-91.5 9.1-133.8 27-40.9 17.3-77.7 42.1-109.3 73.8-31.6 31.6-56.4 68.4-73.7 109.4-17.9 42.4-27 87.4-27 133.9s9.1 91.5 27 133.9c17.3 41 42.1 77.8 73.7 109.4 31.6 31.6 68.4 56.4 109.3 73.8 42.3 17.9 87.4 27 133.8 27 46.5 0 91.5-9.1 133.8-27 40.9-17.3 77.7-42.1 109.3-73.8 9.9-9.9 19.2-20.4 27.8-31.4l-60.2-47c-5.3-4.1-3.5-12.5 3-14.1l175.6-43c5-1.2 9.9 2.6 9.9 7.7l0.8 180.9c-0.1 6.6-7.8 10.3-13 6.2z"  horiz-adv-x="1024" />

    
    <glyph glyph-name="reloadtime" unicode="&#59292;" d="M536.1 623H488c-4.4 0-8-3.6-8-8v-275.3c0-2.6 1.2-5 3.3-6.5l165.3-120.7c3.6-2.6 8.6-1.9 11.2 1.7l28.6 39c2.7 3.7 1.9 8.7-1.7 11.2L544.1 367.5V615c0 4.4-3.6 8-8 8zM755.9 547.8l156.8-38.3c5-1.2 9.9 2.6 9.9 7.7l0.8 161.5c0 6.7-7.7 10.5-12.9 6.3L752.9 561.9c-5.3-4.2-3.5-12.5 3-14.1zM923.6 246.7l-56.7 19.5c-4.1 1.4-8.6-0.7-10.1-4.8-1.9-5.1-3.9-10.1-6-15.1-17.8-42.1-43.3-80-75.9-112.5-32.5-32.5-70.4-58.1-112.5-75.9-43.6-18.4-89.9-27.8-137.7-27.8-47.8 0-94.1 9.3-137.7 27.8-42.1 17.8-80 43.4-112.5 75.9-32.5 32.5-58 70.4-75.9 112.5C180.3 289.8 171 336.2 171 384c0 47.8 9.3 94.2 27.8 137.8 17.8 42.1 43.3 80 75.9 112.5 32.5 32.5 70.4 58.1 112.5 75.9C430.6 728.7 477 738 524.8 738s94.1-9.3 137.7-27.8c42.1-17.8 80-43.4 112.5-75.9 10.2-10.3 19.8-21 28.6-32.3l59.8 46.8C784.7 749.4 662.2 814.1 524.6 814 285 813.9 92.6 619.3 95 379.6 97.4 144.1 288.9-46 524.8-46c185.5 0 343.5 117.6 403.7 282.3 1.5 4.2-0.7 8.9-4.9 10.4z"  horiz-adv-x="1024" />

    
    <glyph glyph-name="message" unicode="&#59293;" d="M512 384m-48 0a48 48 0 1 1 96 0 48 48 0 1 1-96 0ZM712 384m-48 0a48 48 0 1 1 96 0 48 48 0 1 1-96 0ZM312 384m-48 0a48 48 0 1 1 96 0 48 48 0 1 1-96 0ZM925.2 557.6c-22.6 53.7-55 101.9-96.3 143.3-41.3 41.3-89.5 73.8-143.3 96.3C630.6 820.3 572.2 832 512 832h-2c-60.6-0.3-119.3-12.3-174.5-35.9-53.3-22.8-101.1-55.2-142-96.5-40.9-41.3-73-89.3-95.2-142.8-23-55.4-34.6-114.3-34.3-174.9 0.3-69.4 16.9-138.3 48-199.9v-152c0-25.4 20.6-46 46-46h152.1c61.6-31.1 130.5-47.7 199.9-48h2.1c59.9 0 118 11.6 172.7 34.3 53.5 22.3 101.6 54.3 142.8 95.2 41.3 40.9 73.8 88.7 96.5 142 23.6 55.2 35.6 113.9 35.9 174.5 0.3 60.9-11.5 120-34.8 175.6z m-151.1-438C704 50.2 611 12 512 12h-1.7c-60.3 0.3-120.2 15.3-173.1 43.5l-8.4 4.5H188V200.8l-4.5 8.4C155.3 262.1 140.3 322 140 382.3c-0.4 99.7 37.7 193.3 107.6 263.8 69.8 70.5 163.1 109.5 262.8 109.9h1.7c50 0 98.5-9.7 144.2-28.9 44.6-18.7 84.6-45.6 119-80 34.3-34.3 61.3-74.4 80-119 19.4-46.2 29.1-95.2 28.9-145.8-0.6-99.6-39.7-192.9-110.1-262.7z"  horiz-adv-x="1024" />

    
    <glyph glyph-name="dashboard" unicode="&#59294;" d="M924.8 510.4c-22.6 53.4-54.9 101.3-96 142.4-41.1 41.1-89 73.4-142.4 96C631.1 772.2 572.5 784 512 784s-119.1-11.8-174.4-35.2c-53.4-22.6-101.3-54.9-142.4-96-41.1-41.1-73.4-89-96-142.4C75.8 455.1 64 396.5 64 336c0-132.7 58.3-257.7 159.9-343.1l1.7-1.4c5.8-4.8 13.1-7.5 20.6-7.5h531.7c7.5 0 14.8 2.7 20.6 7.5l1.7 1.4C901.7 78.3 960 203.3 960 336c0 60.5-11.9 119.1-35.2 174.4zM761.4 60H262.6C184.5 130.5 140 230.4 140 336c0 99.4 38.7 192.8 109 263 70.3 70.3 163.7 109 263 109 99.4 0 192.8-38.7 263-109 70.3-70.3 109-163.7 109-263 0-105.6-44.5-205.5-122.6-276zM623.5 474.5c-3.1 3.1-8.2 3.1-11.3 0L527.7 390c-18.7 5-39.4 0.2-54.1-14.5-21.9-21.9-21.9-57.3 0-79.2 21.9-21.9 57.3-21.9 79.2 0 14.7 14.7 19.5 35.4 14.5 54.1l84.5 84.5c3.1 3.1 3.1 8.2 0 11.3l-28.3 28.3zM490 576h44c4.4 0 8 3.6 8 8v80c0 4.4-3.6 8-8 8h-44c-4.4 0-8-3.6-8-8v-80c0-4.4 3.6-8 8-8zM750 358v-44c0-4.4 3.6-8 8-8h80c4.4 0 8 3.6 8 8v44c0 4.4-3.6 8-8 8h-80c-4.4 0-8-3.6-8-8zM762.7 555.2l-31.1 31.1c-3.1 3.1-8.2 3.1-11.3 0l-56.6-56.6c-3.1-3.1-3.1-8.2 0-11.3l31.1-31.1c3.1-3.1 8.2-3.1 11.3 0l56.6 56.6c3.1 3.1 3.1 8.2 0 11.3zM304.1 586.3c-3.1 3.1-8.2 3.1-11.3 0l-31.1-31.1c-3.1-3.1-3.1-8.2 0-11.3l56.6-56.6c3.1-3.1 8.2-3.1 11.3 0l31.1 31.1c3.1 3.1 3.1 8.2 0 11.3l-56.6 56.6zM262 366h-80c-4.4 0-8-3.6-8-8v-44c0-4.4 3.6-8 8-8h80c4.4 0 8 3.6 8 8v44c0 4.4-3.6 8-8 8z"  horiz-adv-x="1024" />

    
    <glyph glyph-name="issuesclose" unicode="&#59295;" d="M512 208m-48 0a48 48 0 1 1 96 0 48 48 0 1 1-96 0ZM536 320c4.4 0 8 3.6 8 8V600c0 4.4-3.6 8-8 8h-48c-4.4 0-8-3.6-8-8v-272c0-4.4 3.6-8 8-8h48zM936 508h-59.3c-2.6 0-5-1.2-6.5-3.3L763.7 357.9l-49.9 68.8c-1.5 2.1-3.9 3.3-6.5 3.3H648c-6.5 0-10.3-7.4-6.5-12.7l109.2-150.7c6.4-8.8 19.6-8.8 26 0l165.8 228.7c3.8 5.3 0 12.7-6.5 12.7zM892 202h-64.2c-5.5 0-10.6-2.9-13.6-7.5-14.1-22.4-30.7-43.2-49.8-62.2-32.8-32.7-70.9-58.4-113.3-76.3-43.9-18.5-90.5-27.9-138.7-27.9-48.1 0-94.8 9.4-138.7 27.9-42.4 17.9-80.5 43.6-113.3 76.3-32.8 32.7-58.5 70.8-76.4 113.2-18.6 43.8-28 90.5-28 138.5s9.4 94.7 28 138.5c17.9 42.4 43.6 80.5 76.4 113.2 32.8 32.7 70.9 58.4 113.3 76.3 43.9 18.5 90.5 27.9 138.7 27.9 48.1 0 94.8-9.4 138.7-27.9 42.4-17.9 80.5-43.6 113.3-76.3 19-19 35.6-39.8 49.8-62.2 2.9-4.7 8.1-7.5 13.6-7.5H892c6 0 9.8 6.3 7.2 11.6C828.8 717.5 684.7 814 517.7 816 278.9 818.8 80.5 623.5 80 384.8 79.5 145.9 273.3-48 512.4-48c169.2 0 315.6 97 386.7 238.4 2.7 5.3-1.2 11.6-7.1 11.6z"  horiz-adv-x="1024" />

    
    <glyph glyph-name="poweroff" unicode="&#59296;" d="M705.6 771.1c-5.3 2.7-11.6-1.2-11.6-7.2v-64.2c0-5.5 2.9-10.6 7.5-13.6 22.4-14.1 43.2-30.7 62.2-49.8 32.7-32.8 58.4-70.9 76.3-113.3 18.5-43.9 27.9-90.5 27.9-138.7 0-48.1-9.4-94.8-27.9-138.7-17.9-42.4-43.6-80.5-76.3-113.3-32.7-32.8-70.8-58.5-113.2-76.4-43.8-18.6-90.5-28-138.5-28s-94.7 9.4-138.5 28c-42.4 17.9-80.5 43.6-113.2 76.4-32.7 32.8-58.4 70.9-76.3 113.3-18.5 43.9-27.9 90.5-27.9 138.7 0 48.1 9.4 94.8 27.9 138.7 17.9 42.4 43.6 80.5 76.3 113.3 19 19 39.8 35.6 62.2 49.8 4.7 2.9 7.5 8.1 7.5 13.6V764c0 6-6.3 9.8-11.6 7.2C178.5 700.8 82 556.7 80 389.7 77.2 150.9 272.5-47.5 511.2-48c239-0.5 432.8 193.3 432.8 432.4 0 169.2-97 315.7-238.4 386.7zM480 336h64c4.4 0 8 3.6 8 8V808c0 4.4-3.6 8-8 8h-64c-4.4 0-8-3.6-8-8v-464c0-4.4 3.6-8 8-8z"  horiz-adv-x="1024" />

    
    <glyph glyph-name="logout" unicode="&#59297;" d="M868 164h-70.3c-4.8 0-9.3-2.1-12.3-5.8-7-8.5-14.5-16.7-22.4-24.5-32.6-32.5-70.5-58.1-112.7-75.9-43.6-18.4-90-27.8-137.9-27.8-47.9 0-94.3 9.4-137.9 27.8-42.2 17.8-80.1 43.4-112.7 75.9-32.6 32.5-58.1 70.4-76 112.5C167.3 289.8 158 336.1 158 384s9.4 94.2 27.8 137.8c17.8 42.1 43.4 80 76 112.5s70.5 58.1 112.7 75.9c43.6 18.4 90 27.8 137.9 27.8 47.9 0 94.3-9.3 137.9-27.8 42.2-17.8 80.1-43.4 112.7-75.9 7.9-7.9 15.3-16.1 22.4-24.5 3-3.7 7.6-5.8 12.3-5.8H868c6.3 0 10.2 7 6.7 12.3C798 735.5 663.8 814.4 511.3 814 271.7 813.4 79.6 618.9 82 379.6 84.4 144.1 276.2-46 512.4-46c152.1 0 285.7 78.8 362.3 197.7 3.4 5.3-0.4 12.3-6.7 12.3zM956.9 390.3L815 502.3c-5.3 4.2-13 0.4-13-6.3v-76H488c-4.4 0-8-3.6-8-8v-56c0-4.4 3.6-8 8-8h314v-76c0-6.7 7.8-10.5 13-6.3l141.9 112c4.1 3.2 4.1 9.4 0 12.6z"  horiz-adv-x="1024" />

    
    <glyph glyph-name="login" unicode="&#59298;" d="M512.7 814c-152.5 0.4-286.7-78.5-363.4-197.7-3.4-5.3 0.4-12.3 6.7-12.3h70.3c4.8 0 9.3 2.1 12.3 5.8 7 8.5 14.5 16.7 22.4 24.5 32.6 32.5 70.5 58.1 112.7 75.9 43.6 18.4 90 27.8 137.9 27.8 47.9 0 94.3-9.3 137.9-27.8 42.2-17.8 80.1-43.4 112.7-75.9 32.6-32.5 58.1-70.4 76-112.5C856.7 478.2 866 431.9 866 384s-9.4-94.2-27.8-137.8c-17.8-42.1-43.4-80-76-112.5s-70.5-58.1-112.7-75.9c-43.6-18.4-90-27.8-137.9-27.8-47.9 0-94.3 9.4-137.9 27.8-42.2 17.8-80.1 43.4-112.7 75.9-7.9 7.9-15.3 16.1-22.4 24.5-3 3.7-7.6 5.8-12.3 5.8H156c-6.3 0-10.2-7-6.7-12.3C225.9 32.8 359.5-46 511.6-46c236.2 0 428 190.1 430.4 425.6C944.4 618.9 752.3 813.4 512.7 814zM222 272v76h314c4.4 0 8 3.6 8 8v56c0 4.4-3.6 8-8 8H222v76c0 6.7-7.8 10.5-13 6.3l-141.9-112c-4.1-3.2-4.1-9.4 0-12.6l141.9-112c5.2-4.1 13-0.4 13 6.3z"  horiz-adv-x="1024" />

    
    <glyph glyph-name="piechart" unicode="&#59299;" d="M864 378H506V736c0 4.4-3.6 8-8 8h-26c-54 0-106.4-10.6-155.7-31.4-47.6-20.1-90.4-49-127.1-85.7-36.7-36.7-65.6-79.5-85.7-127.1C82.6 450.4 72 398 72 344c0-54 10.6-106.4 31.4-155.7 20.1-47.6 49-90.4 85.7-127.1 36.7-36.7 79.5-65.6 127.1-85.7C365.6-45.4 418-56 472-56c54 0 106.4 10.6 155.7 31.4 47.6 20.1 90.4 49 127.1 85.7 36.7 36.7 65.6 79.5 85.7 127.1C861.4 237.6 872 290 872 344v26c0 4.4-3.6 8-8 8zM705.7 108.2c-62.6-62.1-147.1-96.6-235.3-96.2-88.1 0.4-170.9 34.9-233.2 97.2C174.5 171.9 140 255.3 140 344c0 88.7 34.5 172.1 97.2 234.8 54.6 54.6 124.9 87.9 200.8 95.5V310h364.3c-7.7-76.3-41.3-147-96.6-201.8zM952 433.6l-2.6 28.2c-8.5 92.1-49.4 179-115.2 244.6-65.8 65.7-152.8 106.5-245.2 115L560.7 824c-4.7 0.4-8.7-3.2-8.7-7.9V432c0-4.4 3.6-8 8-8l384 1c4.7 0 8.4 4 8 8.6z m-332.2 58.2V748.4c62.6-13.1 120.7-44.2 166.4-89.8 45.7-45.6 77-103.6 90-166.1l-256.4-0.7z"  horiz-adv-x="1024" />

    
    <glyph glyph-name="setting" unicode="&#59300;" d="M924.8 270.3l-65.5 56c3.1 19 4.7 38.4 4.7 57.8s-1.6 38.8-4.7 57.8l65.5 56c10.1 8.6 13.8 22.6 9.3 35.2l-0.9 2.6c-18.1 50.5-44.9 96.9-79.7 137.9l-1.8 2.1c-8.6 10.1-22.5 13.9-35.1 9.5l-81.3-28.9c-30 24.6-63.5 44-99.7 57.6l-15.7 85c-2.4 13.1-12.7 23.3-25.8 25.7l-2.7 0.5c-52.1 9.4-106.9 9.4-159 0l-2.7-0.5c-13.1-2.4-23.4-12.6-25.8-25.7l-15.8-85.4c-35.9-13.6-69.2-32.9-99-57.4l-81.9 29.1c-12.5 4.4-26.5 0.7-35.1-9.5l-1.8-2.1c-34.8-41.1-61.6-87.5-79.7-137.9l-0.9-2.6c-4.5-12.5-0.8-26.5 9.3-35.2l66.3-56.6c-3.1-18.8-4.6-38-4.6-57.1 0-19.2 1.5-38.4 4.6-57.1L99 270.5c-10.1-8.6-13.8-22.6-9.3-35.2l0.9-2.6c18.1-50.4 44.9-96.9 79.7-137.9l1.8-2.1c8.6-10.1 22.5-13.9 35.1-9.5l81.9 29.1c29.8-24.5 63.1-43.9 99-57.4l15.8-85.4c2.4-13.1 12.7-23.3 25.8-25.7l2.7-0.5c26.1-4.7 52.8-7.1 79.5-7.1 26.7 0 53.5 2.4 79.5 7.1l2.7 0.5c13.1 2.4 23.4 12.6 25.8 25.7l15.7 85c36.2 13.6 69.7 32.9 99.7 57.6l81.3-28.9c12.5-4.4 26.5-0.7 35.1 9.5l1.8 2.1c34.8 41.1 61.6 87.5 79.7 137.9l0.9 2.6c4.5 12.3 0.8 26.3-9.3 35zM788.3 430.1c2.5-15.1 3.8-30.6 3.8-46.1s-1.3-31-3.8-46.1l-6.6-40.1 74.7-63.9c-11.3-26.1-25.6-50.7-42.6-73.6L721 193.2l-31.4-25.8c-23.9-19.6-50.5-35-79.3-45.8l-38.1-14.3-17.9-97c-28.1-3.2-56.8-3.2-85 0l-17.9 97.2-37.8 14.5c-28.5 10.8-55 26.2-78.7 45.7l-31.4 25.9-93.4-33.2c-17 22.9-31.2 47.6-42.6 73.6l75.5 64.5-6.5 40c-2.4 14.9-3.7 30.3-3.7 45.5 0 15.3 1.2 30.6 3.7 45.5l6.5 40-75.5 64.5c11.3 26.1 25.6 50.7 42.6 73.6l93.4-33.2 31.4 25.9c23.7 19.5 50.2 34.9 78.7 45.7l37.9 14.3 17.9 97.2c28.1 3.2 56.8 3.2 85 0l17.9-97 38.1-14.3c28.7-10.8 55.4-26.2 79.3-45.8l31.4-25.8 92.8 32.9c17-22.9 31.2-47.6 42.6-73.6L781.8 470l6.5-39.9zM512 570c-97.2 0-176-78.8-176-176s78.8-176 176-176 176 78.8 176 176-78.8 176-176 176z m79.2-255.2C570 293.7 541.9 282 512 282c-29.9 0-58 11.7-79.2 32.8C411.7 336 400 364.1 400 394c0 29.9 11.7 58 32.8 79.2C454 494.4 482.1 506 512 506c29.9 0 58-11.6 79.2-32.8C612.3 452 624 423.9 624 394c0-29.9-11.7-58-32.8-79.2z"  horiz-adv-x="1024" />

    
    <glyph glyph-name="eye" unicode="&#59301;" d="M942.2 409.8C847.4 609.5 704.1 710 512 710c-192.2 0-335.4-100.5-430.2-300.3-7.7-16.2-7.7-35.2 0-51.5C176.6 158.5 319.9 58 512 58c192.2 0 335.4 100.5 430.2 300.3 7.7 16.2 7.7 35 0 51.5zM512 130c-161.3 0-279.4 81.8-362.7 254C232.6 556.2 350.7 638 512 638c161.3 0 279.4-81.8 362.7-254C791.5 211.8 673.4 130 512 130zM508 560c-97.2 0-176-78.8-176-176s78.8-176 176-176 176 78.8 176 176-78.8 176-176 176z m0-288c-61.9 0-112 50.1-112 112s50.1 112 112 112 112-50.1 112-112-50.1-112-112-112z"  horiz-adv-x="1024" />

    
    </font>
</defs>
</svg>
